<svg xml:space="preserve" style="enable-background:new 0 0 1024 1024;" viewBox="0 0 1024 1024" y="0px" x="0px" xmlns:xlink="http://www.w3.org/1999/xlink" xmlns="http://www.w3.org/2000/svg" id="图层_1" version="1.1">
<style type="text/css">
	.st0{fill:#FFFFFF;}
	.st1{fill:#ADABB4;}
	.st2{fill:#C6A355;}
	.st3{fill:#EFC4AD;}
	.st4{fill:#FFFDFE;}
	.st5{fill:#384F8D;}
	.st6{fill:#AEDBEB;}
	.st7{fill:#280F12;}
	.st8{fill:#574840;}
	.st9{fill:#C34531;}
	.st10{fill:#E9715A;}
	.st11{fill:#E69F7D;}
	.st12{fill:#F2B3CE;}
	.st13{fill:#203F7D;}
	.st14{fill:#D2AC9D;}
	.st15{fill:#EDE6E9;}
	.st16{fill:#EDC968;}
	.st17{opacity:0.8;}
	.st18{fill:#E3805A;}
	.st19{fill:#FFFFFF;stroke:#000000;stroke-width:0.5;stroke-miterlimit:10;}
	.st20{fill:#4070AF;}
	.st21{fill:#E37B6F;}
	.st22{fill:#F3A596;}
	.st23{fill:#EEC4AE;}
	.st24{fill:#CAAB9E;}
	.st25{fill:#F2E7D8;}
	.st26{fill:#ACA18C;}
	.st27{clip-path:url(#SVGID_4_);}
	.st28{fill:#F2E8D7;}
	.st29{fill:#C5603F;}
	.st30{fill:#D6AA98;}
	.st31{opacity:0.31;}
	.st32{fill:#B45D42;}
	.st33{stroke:#000000;stroke-width:0.25;stroke-miterlimit:10;}
	.st34{stroke:#000000;stroke-width:0.5;stroke-miterlimit:10;}
	.st35{fill:url(#SVGID_7_);}
	.st36{opacity:0.97;fill:#FFFFFF;}
	.st37{fill:url(#SVGID_8_);}
	.st38{stroke:#000000;stroke-miterlimit:10;}
	.st39{opacity:0.67;}
	.st40{fill:#E9CA48;}
	.st41{opacity:0.67;fill:#FFFFFF;}
	.st42{clip-path:url(#SVGID_12_);}
	.st43{fill:#E3DEDE;}
	.st44{fill:#E4D24C;}
	.st45{fill:#876664;}
	.st46{fill:#A1C045;}
	.st47{fill:#EDCE26;}
	.st48{clip-path:url(#SVGID_20_);}
</style>
<g>
	<path d="M355.23,152.25c-10.47,11.17-19.38,18.82-27.02,23.06c1.13,18.68,1.7,30.14,1.7,34.52
		c0,1.13-0.14,2.41-0.14,3.82c-1.98,0.71-3.54,0.99-4.67,0.99c-2.12,0-3.68-0.14-4.67-0.28c-1.7-7.36-2.83-21.22-3.4-41.74
		c-4.39-4.95-9.76-12.31-16.13-22.21c-7.78-11.89-12.59-20.94-14.43-27.02c1.42-1.42,3.82-2.69,7.36-3.82
		c0.42,0.56,3.39,4.95,9.06,13.44c6.93,11.04,14.15,21.93,21.65,32.68c6.65-3.96,14.72-11.32,24.34-21.93
		c5.66-6.22,11.04-13.16,16.41-20.8c2.97,0.85,5.23,2.12,6.93,4.11C370.79,132.3,365.13,140.65,355.23,152.25z" class="st38"></path>
	<path d="M450.88,212.24c-5.94,1.13-16.55,1.7-31.98,1.7c-18.39-0.28-29.57-1.28-33.67-2.69
		c-1.56-11.04-2.41-21.93-2.41-32.83c0-16.56,0.28-29.71,1.13-39.48c0.56-0.28,2.12-0.42,4.39-0.42c2.83,0,4.53,0.28,5.23,0.85
		l-0.28,22.21c28.44,0.57,44.14,1.13,46.97,1.84c0.28,0.57,0.56,1.98,0.56,4.11c0,1.41-0.28,2.83-0.85,4.53
		c-3.39,0.28-5.94,0.42-7.5,0.42c-13.16,0-26.32-0.14-39.47-0.56c0,7.92,0.42,17.97,1.28,30.42c7.07,0.85,15,1.13,23.77,1.13
		c11.04,0.14,21.93,0.28,32.68,0.43c0.28,0.56,0.57,1.98,0.57,4.24C451.31,209.83,451.17,211.25,450.88,212.24z M459.51,130.74
		c-9.19,0.56-27.45,0.71-54.61,0.71c-10.19,0-17.12-0.14-20.8-0.57c-0.43-2.55-0.57-3.96-0.57-4.24c0-1.7,0.14-3.25,0.57-4.67
		c14-0.71,27.02-1.13,39.19-1.13c13.02,0,25.05,0.57,36.22,1.42c0.14,1.41,0.28,2.83,0.28,4.24
		C459.79,128.48,459.65,129.89,459.51,130.74z" class="st38"></path>
	<path d="M558,214.22c-3.11,0-5.09-0.14-5.94-0.42c-0.14-17.83-1.98-34.1-5.52-48.67c-1.98-7.5-4.67-14.86-8.06-21.93
		c-5.23-9.34-10.75-14.01-16.55-14.01c-4.95,0-10.75,4.53-17.55,13.44c-6.93,10.19-13.01,22.36-18.25,36.79l37.49,5.38
		c0,0.42,0.14,1.7,0.14,3.96c0,1.7-0.28,3.11-0.71,4.11c-4.95,0-18.25-1.28-39.9-4.11l-7.07,25.89c-3.26,0-6.09-0.43-8.49-1.42
		c2.69-18.96,7.36-35.79,14.01-50.65c3.96-9.2,8.63-17.54,14.29-25.04c9.06-11.89,17.68-17.97,25.89-17.97s15.56,4.53,22.07,13.44
		c4.67,6.65,8.63,15.14,11.89,25.33c3.96,15.14,5.94,30.42,5.94,45.7v9.76C559.83,214.07,558.56,214.22,558,214.22z" class="st38"></path>
	<path d="M584.04,161.73c-0.28,14.57-0.71,31.98-1.28,52.21c-1.13,0.56-2.83,0.71-5.09,0.71
		c-0.99,0-2.4-0.14-4.24-0.43c-0.28-4.53-0.43-15.99-0.43-34.66c0-15.28,0.57-35.09,1.98-59.43c2.69-0.28,4.53-0.42,5.38-0.42
		c1.56,0,3.11,0.28,4.53,0.71C584.74,129.18,584.46,143.05,584.04,161.73z M650.39,153.8c-0.57,32.12-0.99,51.78-1.56,59
		c-1.13,0.42-2.55,0.56-4.24,0.56c-1.7,0-3.25-0.14-4.67-0.42c-0.28-2.83-0.56-6.65-0.56-11.74c0-9.48,0-18.96,0-28.58
		c-21.22-0.42-35.51-0.85-42.73-1.41c-0.42-0.71-0.71-2.12-0.71-4.39c0-2.27,0.14-3.82,0.56-4.53c8.49,0,16.7-0.14,24.62-0.14
		c6.37,0.14,12.59,0.28,18.54,0.56c0.56-16.69,1.13-29.28,1.7-37.49c0.42-0.14,1.7-0.28,3.96-0.43c1.13,0,2.83,0.14,4.95,0.43
		C650.25,130.6,650.39,140.22,650.39,153.8z" class="st38"></path>
	<path d="M736.15,207.71c-1.56,3.68-2.83,5.94-3.82,7.08c-5.94-1.42-10.89-3.54-15-6.65
		c0.56-3.54,2.69-8.35,6.22-14.43c4.11,0.28,9.06,2.26,15,6.08C738.55,201.48,737.7,204.03,736.15,207.71z M737.7,149.42
		c-1.27,15.14-2.83,25.33-4.81,30.42c-0.43,0.14-1.56,0.14-3.39,0.14c-2.55,0-4.25-0.14-5.1-0.56c-0.28-1.42-0.28-3.54-0.28-6.37
		c0-19.24,1.56-37.07,4.95-53.2c0.14,0,0.71,0,1.84-0.14c0.99,0,1.7,0,2.12,0c1.98,0,3.96,0.42,5.66,1.13c0,0.28,0,1.13,0,2.83
		c0,1.84,0.14,3.11,0.14,3.68C738.83,133,738.41,140.36,737.7,149.42z" class="st38"></path>
</g>
<g>
	<g>
		<path d="M484.29,327.19c0.98,1.4,1.7,2.97,2.37,4.54c-0.27-0.64-0.54-1.28-0.81-1.92c3.16,7.62,4.82,15.77,8.21,23.3
			c0.78,1.72,3.05,3.21,4.8,3.69c1.92,0.53,4.48,0.29,6.19-0.81c1.71-1.1,3.22-2.75,3.69-4.8c0.51-2.23,0.12-4.11-0.81-6.19
			c-0.1-0.21-0.19-0.43-0.28-0.64c0.27,0.64,0.54,1.28,0.81,1.92c-1.8-4.3-3-8.85-4.44-13.28c-0.75-2.31-1.53-4.62-2.44-6.87
			c-0.97-2.39-1.92-4.91-3.42-7.04c-1.22-1.74-2.69-3.11-4.8-3.69c-1.92-0.53-4.48-0.29-6.19,0.81
			C483.76,318.4,481.71,323.51,484.29,327.19L484.29,327.19z"></path>
	</g>
</g>
<g>
	<g>
		<path d="M565.22,344.88c-0.25,1.12-0.65,2.19-1.08,3.25c0.27-0.64,0.54-1.28,0.81-1.92c-3.17,7.49-8.33,13.95-11.57,21.39
			c-0.89,2.05-1.43,3.93-0.81,6.19c0.51,1.86,1.95,3.88,3.69,4.8c1.86,0.98,4.12,1.48,6.19,0.81c1.85-0.6,3.98-1.82,4.8-3.69
			c1.88-4.31,4.53-8.3,6.87-12.37c1.28-2.22,2.54-4.45,3.66-6.75c1.16-2.37,2.34-4.85,2.93-7.44c0.93-4.09-1.25-8.88-5.61-9.87
			C571.02,338.34,566.22,340.5,565.22,344.88L565.22,344.88z"></path>
	</g>
</g>
<g>
	<g>
		<path d="M418.64,374.48c1.72,0.99,3.33,2.15,4.9,3.36c-0.54-0.42-1.08-0.84-1.62-1.26c6.16,4.78,11.76,10.6,18.56,14.5
			c3.64,2.09,8.95,0.97,10.98-2.88c2.02-3.82,1.01-8.75-2.88-10.98c-1.72-0.99-3.33-2.15-4.9-3.36c0.54,0.42,1.08,0.84,1.62,1.26
			c-6.16-4.78-11.76-10.6-18.56-14.5c-3.64-2.09-8.95-0.97-10.98,2.88C413.74,367.32,414.75,372.25,418.64,374.48L418.64,374.48z"></path>
	</g>
</g>
<g>
	<g>
		<g>
			<polygon points="51.64,933.47 -23.61,1009.22 -9.15,898.15" class="st3"></polygon>
		</g>
		<g>
			<g>
				<path d="M47.86,929.69c-21.98,22.12-43.95,44.24-65.93,66.36c-3.11,3.13-6.22,6.26-9.32,9.39c3.04,1.26,6.09,2.52,9.13,3.78
					c4.21-32.32,8.42-64.65,12.63-96.97c0.61-4.7,1.22-9.4,1.84-14.1c-2.68,1.54-5.37,3.08-8.05,4.62
					c20.26,11.77,40.53,23.55,60.79,35.32c5.97,3.47,11.36-5.78,5.4-9.24c-20.26-11.77-40.53-23.55-60.79-35.32
					c-3.86-2.24-7.55,0.75-8.05,4.62c-4.21,32.32-8.42,64.65-12.63,96.97c-0.61,4.7-1.22,9.4-1.84,14.1
					c-0.62,4.8,6.15,6.79,9.13,3.78c21.98-22.12,43.95-44.24,65.93-66.36c3.11-3.13,6.22-6.26,9.32-9.39
					C60.29,932.37,52.72,924.79,47.86,929.69z"></path>
			</g>
		</g>
	</g>
	<g>
		<g>
			<path d="M465.11,559.56c-7-2.27-12.44-5.77-15.09-10.94c-18.47-14.56-14.42-39.66-9.7-46.06
				c3.52-4.77,9.51-1.32,13.91,2.38c6.44-8.84,27.4-39.49,39.62-41.97c9.95-2.02,20.47-0.26,29.97,2.89
				c19.83,6.58,27.77,49.01,19.07,70.62c-0.39,0.97-0.35,2.07-0.58,3.1c-6.35,17.63-5.11,9.08-10.8,18.48
				c-29.52,185.11-161.33,245.35-161.33,245.35l-0.57-128.95C431.8,653.46,465.11,559.56,465.11,559.56z" class="st3"></path>
		</g>
		<g>
			<g>
				<path d="M466.25,555.43c-3.58-1.23-7.28-2.8-10-5.53c-1.05-1.05-1.63-2.34-2.53-3.45c-1.22-1.49-2.79-2.6-4.14-3.98
					c-4.34-4.44-7.07-10.09-8.29-16.15c-0.96-4.81-0.96-9.98,0.08-14.77c0.36-1.65,0.75-3.81,1.69-5.26
					c2.17-3.36,5.75-0.24,8.13,1.68c2.29,1.85,4.98,1.53,6.72-0.87c4.87-6.7,9.64-13.47,14.85-19.92
					c5.37-6.64,11.69-15.26,19.56-19.1c4.85-2.37,11.45-1.95,16.67-1.32c5.78,0.71,12.94,1.87,17.76,5.44
					c7.15,5.3,10.71,14.91,12.84,23.2c2.49,9.69,3.36,20.18,1.79,30.09c-0.69,4.38-2.05,8.72-3.23,12.96
					c-0.92,3.31-2.86,8.52-4.68,10.57c-1.25,1.41-2.65,2.5-3.8,4.05c-3.35,4.56-3.38,10.42-4.41,15.86
					c-2.35,12.45-5.26,24.79-8.76,36.96c-19.44,67.54-58.6,130.29-115.17,172.81c-10.39,7.81-21.47,15.57-33.34,21.02
					c2.15,1.23,4.29,2.46,6.44,3.7c-0.17-37.61-0.33-75.23-0.5-112.84c-0.02-5.37-0.05-10.74-0.07-16.11
					c-1.05,1.38-2.1,2.75-3.14,4.13c45.53-15.76,74.9-62.77,93.21-104.86c1.87-4.29,3.72-8.62,5.29-13.03
					c1.85-5.2-6.42-7.44-8.26-2.28c-3.83,10.79-8.89,21.25-14.21,31.37c-11.13,21.16-24.68,41.52-42.23,57.91
					c-10.46,9.76-22.49,17.94-36.07,22.64c-1.79,0.62-3.15,2.16-3.14,4.13c0.17,37.61,0.33,75.23,0.5,112.84
					c0.02,5.37,0.05,10.74,0.07,16.11c0.02,3.48,3.57,5.01,6.44,3.7c10.62-4.87,20.57-11.68,29.98-18.53
					c24.19-17.61,45.54-38.86,63.76-62.57c26.62-34.63,46.02-74.45,58.27-116.32c3.7-12.66,6.75-25.52,9.2-38.48
					c0.91-4.82,0.74-10.88,4.27-14.58c1.56-1.64,3.04-2.92,4.16-4.96c4.64-8.42,7.33-19.15,8.31-28.69
					c1.07-10.34-0.02-21.11-2.77-31.12c-2.69-9.78-7.3-20.2-15.65-26.45c-5.13-3.85-11.74-5.41-17.95-6.5
					c-7.02-1.23-14.96-1.88-21.91,0.11c-9.33,2.67-16.75,11.9-22.73,19.02c-6.67,7.93-12.66,16.37-18.74,24.75
					c2.24-0.29,4.48-0.58,6.72-0.87c-6.51-5.25-16.19-9.55-21.43-0.24c-3.23,5.74-4.05,13.19-3.71,19.65
					c0.44,8.61,3.2,17.02,8.52,23.85c6.43,8.24,13.29,15.06,23.34,18.51C469.19,565.48,471.43,557.21,466.25,555.43z"></path>
			</g>
		</g>
	</g>
	<g>
		<path d="M382.17,796.85c0,0-47.81,55.95-92.91,69.74l-25.01-103.82l105.36-88.31L382.17,796.85z" class="st21"></path>
		<path d="M286.17,872.01l-26.7-110.81L373.04,666l13.58,132.24l-1.19,1.39c-1.99,2.32-49.14,57.06-94.91,71.06L286.17,872.01z
			 M269.03,764.35l23.3,96.7c38.24-13.96,78.05-57.36,85.39-65.62l-11.55-112.5L269.03,764.35z"></path>
	</g>
	<g>
		<g>
			<path d="M12.31,1042.25c0,0,18.58-71.08,60.54-288.2c0,0,63.85,69.81,189.91,10.98c0,0,51.03,111.27,58.58,273.09" class="st22"></path>
		</g>
		<g>
			<path d="M16.07,1027.47c3.19-12.2,5.95-24.52,8.75-36.81c9.75-42.78,18.73-85.74,27.49-128.73
				c8.33-40.84,16.39-81.73,24.3-122.65c-2.17,0.57-4.34,1.15-6.51,1.72c8.21,8.95,19.61,15.75,30.41,20.97
				c27.5,13.3,58.65,17.05,88.81,13.32c26.27-3.25,51.46-11.6,75.41-22.71c-1.78-0.47-3.55-0.93-5.33-1.4
				c0.48,1.04,0.93,2.09,1.38,3.14c0.21,0.5,0.73,1.72,0.4,0.94c0.3,0.71,0.6,1.43,0.89,2.14c0.74,1.79,1.46,3.58,2.17,5.38
				c4.56,11.52,8.7,23.21,12.56,34.98c13.46,41.11,23.45,83.38,30.39,126.07c5.3,32.6,8.7,65.49,10.26,98.48
				c0.24,4.99,8.03,5.02,7.79,0c-2.62-55.11-10.35-110.01-23.2-163.66c-7.72-32.25-17.16-64.21-29.19-95.13
				c-2.12-5.46-4.28-10.93-6.72-16.26c-0.93-2.04-3.58-2.21-5.33-1.4c-36.12,16.76-76.92,27.48-116.9,21.38
				c-21.51-3.28-42.43-11.23-59.87-24.37c-1.43-1.08-4.18-3.33-6.11-5.12c-0.79-0.73-1.58-1.47-2.3-2.26
				c-1.89-2.06-5.96-1.14-6.51,1.72c-12.38,64.01-25.08,127.96-38.69,191.72c-6.09,28.53-12.29,57.05-19.12,85.41
				c-0.89,3.69-1.78,7.39-2.74,11.06C7.29,1030.26,14.8,1032.33,16.07,1027.47L16.07,1027.47z"></path>
		</g>
	</g>
	<g>
		<g>
			<path d="M62.74,785.05l-15.78,68.75l-15.21,69.13c0,0-53.63-15.59-27.5-64.9L62.74,785.05z" class="st21"></path>
		</g>
		<g>
			<path d="M56.64,783.92c-8.38,36.53-16.73,73.05-24.77,109.61c-2.07,9.42-4.15,18.85-6.22,28.27c3.1-0.85,6.2-1.71,9.29-2.56
				c-7.9-2.32-14.28-6.19-19.56-10.8C1.83,896.61,1.3,881.06,6.7,867.09c3.13-8.09,9.36-14.82,15.23-22.15
				c9.2-11.48,18.41-22.97,27.61-34.45c6.22-7.76,12.43-15.51,18.65-23.27c3.88-4.84-7.04-9.17-10.93-4.32
				c-15.17,18.93-30.34,37.85-45.51,56.78C5.5,847.5-1.44,854.92-4.99,863.54c-6.37,15.49-6.4,32.86,6.89,46.75
				c6.33,6.62,15.78,13.15,26.65,16.35c3.27,0.96,8.63,0.47,9.29-2.56c8.03-36.48,16.09-72.95,24.45-109.4
				c2.18-9.5,4.36-18.99,6.54-28.49C70.07,780.8,57.88,778.48,56.64,783.92z"></path>
		</g>
	</g>
	<g class="st39">
		<path d="M245.72,772.16c0,0,22.21-14.44,29.51,251.4l-35.56,0.72l-10.25-243.66L245.72,772.16z" class="st0"></path>
	</g>
	<g class="st39">
		<polyline points="150.71,1026.44 178.03,785.38 198.18,784.6 184.96,1026.43" class="st0"></polyline>
	</g>
	<g class="st39">
		<polyline points="46.39,1025.5 115.86,785.4 135.4,787.17 81.39,1025.3" class="st0"></polyline>
	</g>
	<g>
		<g>
			<g>
				<g>
					<path d="M267.59,478.41c37.72,16.55,64.31,51.04,72.18,91.48c1.33,6.83,1.32,13.22,3.14,17.48
						c6.04,14.1,53.9,98.65-44.7,158.25c0,0-110.8,83.66-226.26-44.89c0,0-0.27-0.37-0.77-1.08
						c-37.21-52.58-38.79-123.14-2.34-176.25c27.02-39.37,72.77-72.82,149.24-59.27C218.08,464.14,240.84,466.67,267.59,478.41z" class="st3"></path>
				</g>
			</g>
			<g>
				<g>
					<g>
						<path d="M270.79,472.83c38.35,17.01,66.43,52.92,74.88,93.89c1.17,5.68,1.15,11.74,2.85,17.3c0.12,0.38,0.33,1.35,0.57,1.59
							c0.14,0.13-0.82-1.79-0.47-1.1c0.11,0.21,0.19,0.43,0.29,0.64c0.23,0.5,0.46,1,0.69,1.5c1.56,3.36,3.11,6.73,4.57,10.14
							c3.89,9.08,7.09,18.45,9.17,28.12c6.14,28.62,2.1,58.44-14.44,83c-13.85,20.56-34,35.75-55.13,48.23
							c-17.73,10.47-37.75,17.58-58.09,20.68c-33.37,5.07-66.88-0.61-97.13-15.51c-20.4-10.05-38.86-23.94-55.27-39.61
							c-4.88-4.66-9.59-9.51-14.14-14.49c-3.57-3.91-6.44-8.4-9.2-12.9c-5.87-9.58-10.72-19.81-14.52-30.39
							c-15.07-41.86-11.98-89.37,8.79-128.75c16.58-31.43,43.56-57.72,76.78-70.85c18.61-7.36,38.92-10.21,58.87-9.61
							c5.67,0.17,11.34,0.63,16.97,1.31c3.17,0.39,6.34,0.81,9.5,1.32c0.1,0.02,3.26,0.63,1.75,0.37c0.69,0.12,1.39,0.17,2.08,0.26
							c5.77,0.77,11.49,1.96,17.14,3.37C248.8,464.2,259.95,468.12,270.79,472.83c3.19,1.39,3.97,6.01,2.37,8.78
							c-1.89,3.29-5.58,3.76-8.78,2.37c-10.2-4.43-20.83-7.91-31.64-10.52c-3.49-0.84-7-1.59-10.53-2.22
							c-1.16-0.21-2.33-0.4-3.5-0.58c-1.14-0.17-2.72-0.38-0.36-0.07c-10-1.33-19.81-2.84-29.92-3.06
							c-9.76-0.21-19.58,0.36-29.19,2.12c-32.81,6.01-60.29,24.4-80.35,50.7c-23.96,31.43-34.86,73.15-28.19,112.91
							c3.5,20.83,11.22,40.71,22.79,58.38c6.11,9.33,14.91,17.42,23.52,25.27c8.21,7.48,16.89,14.43,26.13,20.6
							c28.15,18.8,60.45,29.63,93.89,28.3c3.46-0.14,6.91-0.4,10.35-0.77c1.25-0.14,3.66-0.44,4.12-0.5
							c0.53-0.07,2.97-0.46,4.28-0.69c5.92-1.04,11.77-2.43,17.54-4.13c5.07-1.5,10.07-3.25,14.97-5.24c0.57-0.23,1.14-0.47,1.7-0.7
							c0.6-0.25,1.52-0.65,0.33-0.13c1.06-0.46,2.11-0.93,3.16-1.41c1.92-0.88,3.83-1.8,5.72-2.76c4.87-2.48,9.65-5.18,14.16-8.28
							c10.2-7,20.41-13.46,29.38-22.09c6.07-5.84,11.55-12.19,16.1-19.23c4.2-6.5,7.49-13.12,9.78-19.88
							c1.1-3.26,2.03-6.58,2.76-9.95c0.35-1.58,0.65-3.16,0.91-4.75c0.14-0.84,0.26-1.68,0.38-2.52c0.03-0.19,0.16-1.27,0.02-0.16
							c0.05-0.41,0.1-0.83,0.14-1.25c0.61-6.31,0.71-12.63,0.21-18.95c-0.11-1.43-0.25-2.86-0.42-4.29
							c-0.09-0.75-0.18-1.5-0.28-2.24c0.2,1.44-0.15-0.96-0.21-1.33c-0.45-2.75-0.99-5.49-1.62-8.2c-1.16-5.02-2.62-9.98-4.32-14.84
							c-0.73-2.1-1.51-4.18-2.33-6.25c-0.39-0.98-0.78-1.95-1.19-2.92c-0.17-0.4-0.34-0.8-0.51-1.21c-0.54-1.29,0.55,1.24-0.12-0.28
							c-1.21-2.72-2.47-5.43-3.72-8.13c-3.27-7.07-3.42-14.49-4.93-22.03c-1.9-9.48-4.84-18.85-8.94-27.62
							c-8.15-17.44-20.23-32.85-35.48-44.65c-7.53-5.83-15.9-10.6-24.59-14.45c-3.18-1.41-3.98-6-2.37-8.78
							C263.89,471.94,267.61,471.42,270.79,472.83z"></path>
					</g>
				</g>
			</g>
		</g>
		<g>
			<g>
				<g>
					<g>
						
							<ellipse ry="27.45" rx="32.12" cy="616.54" cx="159.44" class="st0" transform="matrix(0.9619 -0.2735 0.2735 0.9619 -162.5541 67.1189)"></ellipse>
					</g>
				</g>
			</g>
			<g>
				<g>
					<g>
						<path d="M185.29,610.03c2.81,11.71-5.84,23.95-19.31,27.34c-13.47,3.39-26.67-3.35-29.48-15.07
							c-2.81-11.71,5.84-23.95,19.31-27.34S182.48,598.32,185.29,610.03z" class="st7"></path>
					</g>
				</g>
			</g>
			<g>
				<g>
					<g>
						<path d="M197,600.75c-2.91-3.11-6.4-5.68-10.12-7.9c-3.75-2.18-7.81-3.94-12.11-5.07
							c-4.29-1.17-8.83-1.62-13.37-1.39c-4.54,0.28-9.05,1.32-13.28,3c-8.48,3.44-15.67,9.26-21.4,15.93
							c-1.45,1.66-2.83,3.38-4.11,5.15c-1.29,1.8-2.47,3.53-3.8,5.19c-1.31,1.65-2.85,3.16-4.44,4.6c-0.8,0.72-1.64,1.39-2.51,2.02
							c-0.88,0.59-1.81,1.24-2.91,1.27c1.1,0.13,2.19-0.39,3.17-0.85c1-0.5,1.93-1.1,2.84-1.72c1.82-1.25,3.52-2.67,5.13-4.22
							c1.62-1.54,3-3.29,4.4-4.87c1.43-1.59,2.87-3.18,4.38-4.68c6-6.02,12.85-11.28,20.63-14.35c7.73-3.17,16.31-3.85,24.5-2.21
							c4.09,0.82,8.11,2.12,11.95,3.85C189.81,596.2,193.52,598.29,197,600.75z" class="st7"></path>
					</g>
				</g>
			</g>
			<g>
				<g>
					<g>
						<path d="M130.13,631.71c2.01,2.97,4.68,5.5,7.65,7.64c2.97,2.16,6.37,3.81,9.96,4.94l1.35,0.42
							c0.46,0.12,0.93,0.2,1.39,0.31c0.93,0.18,1.85,0.43,2.8,0.55c1.9,0.22,3.81,0.41,5.72,0.3c1.92,0.04,3.83-0.24,5.73-0.52
							c0.96-0.09,1.87-0.4,2.8-0.62l2.78-0.72l-0.18,0.04c1.51-0.36,2.72-0.82,3.99-1.38c1.24-0.56,2.46-1.15,3.62-1.83
							c2.36-1.31,4.5-2.93,6.53-4.64c0.97-0.9,1.96-1.78,2.85-2.76c0.45-0.48,0.91-0.95,1.34-1.44l1.23-1.53
							c0.85-0.99,1.54-2.1,2.28-3.16c0.71-1.08,1.32-2.23,1.96-3.33l-2.66,2.8c-0.95,0.87-1.78,1.83-2.76,2.65
							c-1.86,1.72-3.85,3.28-5.89,4.74c-2.05,1.45-4.22,2.68-6.42,3.8c-1.1,0.56-2.24,1.04-3.38,1.47c-1.12,0.4-2.36,0.82-3.36,1.05
							l-0.18,0.04c-3.4,0.85-6.83,1.59-10.3,1.66c-3.46,0.17-6.93-0.18-10.29-0.99c-3.38-0.76-6.66-1.99-9.77-3.61
							C135.83,635.99,132.87,634.03,130.13,631.71z" class="st7"></path>
					</g>
				</g>
			</g>
			<g>
				<g>
					<g>
						<path d="M108.94,600.74c2.71,0.85,5.58,1.18,8.44,1.26c2.87,0.1,5.75-0.17,8.6-0.65
							c1.42-0.24,2.83-0.61,4.23-0.95c1.37-0.47,2.78-0.82,4.1-1.43c2.7-1.04,5.22-2.52,7.5-4.25c-2.78,0.81-5.4,1.74-8.11,2.4
							c-2.69,0.71-5.38,1.32-8.11,1.77c-2.72,0.51-5.46,0.86-8.23,1.16C114.58,600.35,111.8,600.56,108.94,600.74z" class="st7"></path>
					</g>
				</g>
			</g>
			<g>
				<g>
					<g>
						<path d="M103.44,608.88c2.43,0.74,4.98,0.98,7.53,0.99c2.55,0.01,5.11-0.24,7.63-0.77
							c2.52-0.5,4.99-1.27,7.34-2.32c2.37-0.99,4.58-2.35,6.57-3.94c-2.49,0.68-4.82,1.49-7.21,2.1c-2.37,0.67-4.76,1.21-7.16,1.7
							C113.33,607.68,108.49,608.29,103.44,608.88z" class="st7"></path>
					</g>
				</g>
			</g>
			<g>
				<g>
					<g>
						
							<ellipse ry="6.22" rx="6.46" cy="614.83" cx="151.29" class="st0" transform="matrix(0.922 -0.3873 0.3873 0.922 -226.3172 106.5811)"></ellipse>
					</g>
				</g>
			</g>
			<g>
				<g>
					<g>
						<path d="M166.85,624.4c0.4,1.67-2.07,3.73-5.53,4.6c-3.45,0.87-6.58,0.22-6.98-1.46c-0.4-1.67,2.07-3.73,5.53-4.6
							C163.32,622.08,166.45,622.73,166.85,624.4z" class="st0"></path>
					</g>
				</g>
			</g>
			<g>
				<g>
					<g>
						<path d="M193.04,584.27c-5.01-3.19-10.77-5.26-16.72-6.33c-5.97-1.07-12.16-1.01-18.21-0.05
							c-6.01,1.12-11.93,2.86-17.47,5.47c-2.76,1.32-5.43,2.82-7.96,4.52c-2.5,1.74-4.89,3.64-7.04,5.77
							c4.66-3.87,9.86-7.03,15.39-9.42c5.52-2.39,11.34-4.11,17.26-5.11c5.9-1.04,11.95-1.08,17.84-0.24
							c2.95,0.42,5.86,1.09,8.68,1.99C187.65,581.77,190.42,582.88,193.04,584.27z" class="st7"></path>
					</g>
				</g>
			</g>
		</g>
		<g>
			<g>
				<g>
					<g>
						
							<ellipse ry="24.32" rx="26.31" cy="587.64" cx="299.75" class="st0" transform="matrix(0.9656 -0.2599 0.2599 0.9656 -142.4283 98.0987)"></ellipse>
					</g>
				</g>
			</g>
			<g>
				<g>
					<g>
						
							<ellipse ry="19.31" rx="20.61" cy="587.78" cx="299.25" class="st7" transform="matrix(0.9656 -0.2599 0.2599 0.9656 -142.4803 97.9739)"></ellipse>
					</g>
				</g>
			</g>
			<g>
				<g>
					<g>
						<path d="M267.22,590.76c1.47-3.37,3.27-6.53,5.32-9.47c2.04-2.94,4.37-5.63,6.95-7.97
							c5.17-4.68,11.57-7.72,18.37-8.46c6.8-0.84,13.83,0.41,20.56,2.61c1.69,0.55,3.36,1.18,5.03,1.83
							c1.65,0.65,3.35,1.44,5.13,1.97c1.78,0.54,3.57,0.94,5.38,1.15c0.9,0.11,1.81,0.19,2.73,0.16c0.89-0.05,1.87-0.09,2.61-0.65
							c-0.8,0.43-1.73,0.31-2.6,0.22c-0.88-0.12-1.75-0.3-2.61-0.53c-1.72-0.47-3.43-1-5.04-1.74c-1.62-0.74-3.17-1.6-4.82-2.46
							c-1.64-0.85-3.32-1.61-5.03-2.31c-6.8-2.82-14.3-4.37-21.75-3.52c-3.7,0.45-7.34,1.52-10.69,3.18
							c-3.33,1.7-6.38,3.94-8.96,6.64c-2.61,2.67-4.78,5.73-6.57,8.99C269.47,583.67,268.03,587.13,267.22,590.76z" class="st7"></path>
					</g>
				</g>
			</g>
			<g>
				<g>
					<g>
						<path d="M327.52,587.1c-1.01,2.94-2.32,5.7-3.88,8.26c-1.56,2.55-3.4,4.88-5.5,6.88
							c-2.06,2.03-4.4,3.74-6.93,5.05c-2.5,1.39-5.25,2.24-8.02,2.99l-0.14,0.04c-0.8,0.24-1.86,0.43-2.82,0.58
							c-0.99,0.14-2,0.24-3.01,0.26c-2.03,0.04-4.08-0.01-6.13-0.29c-2.05-0.29-4.1-0.68-6.13-1.24c-1.03-0.23-2.02-0.63-3.05-0.92
							l-3.04-1.08c0.91,0.6,1.8,1.24,2.75,1.78c0.96,0.52,1.9,1.09,2.91,1.51l1.5,0.68c0.51,0.2,1.03,0.38,1.54,0.57
							c1.03,0.4,2.09,0.67,3.15,0.97c2.14,0.48,4.33,0.86,6.55,0.9c1.11,0.05,2.22,0,3.33-0.08c1.14-0.1,2.18-0.24,3.41-0.58
							l-0.14,0.04l2.27-0.6c0.75-0.22,1.53-0.36,2.25-0.68c1.47-0.58,2.94-1.15,4.29-1.98c1.41-0.72,2.7-1.66,3.96-2.62
							c0.63-0.48,1.18-1.06,1.77-1.59c0.29-0.27,0.59-0.53,0.87-0.82l0.79-0.89c2.1-2.38,3.85-5.08,5.09-8
							C326.43,593.34,327.3,590.25,327.52,587.1z" class="st7"></path>
					</g>
				</g>
			</g>
			<g>
				<g>
					<g>
						<path d="M330.01,554.15c-2.11,1.05-4.18,2.03-6.28,2.96c-2.09,0.92-4.2,1.78-6.34,2.52
							c-2.13,0.79-4.3,1.43-6.51,2c-2.2,0.61-4.45,0.98-6.76,1.5c2.33,0.4,4.73,0.5,7.08,0.19c1.19-0.07,2.33-0.38,3.51-0.59
							c1.14-0.31,2.29-0.61,3.4-1.02c2.22-0.81,4.39-1.8,6.39-3.07C326.51,557.39,328.42,555.94,330.01,554.15z" class="st7"></path>
					</g>
				</g>
			</g>
			<g>
				<g>
					<g>
						<path d="M337.25,558.2c-3.84,1.64-7.54,3.17-11.38,4.37c-1.91,0.61-3.83,1.18-5.8,1.65
							c-1.96,0.52-3.95,0.86-6,1.36c2.07,0.41,4.2,0.55,6.29,0.34c2.1-0.16,4.18-0.59,6.18-1.24c2.01-0.63,3.94-1.51,5.75-2.57
							C334.1,561.04,335.82,559.79,337.25,558.2z" class="st7"></path>
					</g>
				</g>
			</g>
			<g>
				<g>
					<g>
						<path d="M286.17,584.11c0.79,2.94,3.72,4.71,6.54,3.95c2.82-0.76,4.46-3.76,3.67-6.7s-3.72-4.71-6.54-3.95
							C287.02,578.16,285.38,581.16,286.17,584.11z" class="st0"></path>
					</g>
				</g>
			</g>
			<g>
				<g>
					<g>
						<path d="M298.36,596.67c0.4,1.47,3,2.05,5.82,1.29c2.82-0.76,4.78-2.57,4.38-4.04c-0.4-1.47-3-2.05-5.82-1.29
							C299.93,593.39,297.96,595.2,298.36,596.67z" class="st0"></path>
					</g>
				</g>
			</g>
			<g>
				<g>
					<g>
						<path d="M263.32,576.26c1.3-2.17,2.83-4.19,4.49-6.06c1.65-1.88,3.45-3.61,5.38-5.16
							c3.86-3.11,8.18-5.59,12.82-7.23c4.62-1.68,9.47-2.76,14.39-3.19c4.91-0.43,9.91-0.13,14.81,0.95
							c-2.4-0.77-4.87-1.26-7.37-1.57c-2.5-0.28-5.01-0.34-7.52-0.22c-5.02,0.27-9.94,1.37-14.68,2.99
							c-4.7,1.76-9.14,4.29-12.96,7.61C268.86,567.69,265.59,571.7,263.32,576.26z" class="st7"></path>
					</g>
				</g>
			</g>
		</g>
		<g>
			<g>
				<g>
					<path d="M225.17,635.81c1.36,5.46,6.5,6.42,12.21,5c5.7-1.42,9.81-4.67,8.45-10.13
						c-1.36-5.46-7.66-11.07-13.36-9.66C226.76,622.44,223.81,630.34,225.17,635.81z" class="st10"></path>
				</g>
			</g>
		</g>
		<g>
			<g>
				<path d="M50.95,603.45c0,0-58.91-24-56.99,17.07c1.92,41.06,0.76,68.48,62.33,62.76
					C56.3,683.29,35,632.11,50.95,603.45z" class="st3"></path>
			</g>
		</g>
		<g>
			<g>
				<g>
					<path d="M361.45,516.76c1.66-13.68,0.04-27.6-4.84-40.49c-63.77-168.5-204.15-123.92-204.15-123.92
						S-0.3,311.45-52.97,519.46c-6.37,25.17-22.12,58.8-28.24,91.25c0,0-37.47,144.52,70.22,174.35
						c18.15,5.03,37.11,5.65,55.49,2.35c55.49,2.35,60.24-0.74,60.24-0.74c99.11-20,26.65-132.02-1.1-149.21
						c-27.75-17.19-30.97-59.82-30.97-59.82c-0.37,1.07-1.25,2.28-2.47,3.58c11.67-16.27,23.31-41.4,22.8-76.66
						c0,0,23.68,53.49,18.43,74.23l56.27-11.75c0,0-8.43-52.38-14.9-80.14c0,0,31.56,39.78,32.54,75.77l90.53-22.48
						c0,0,8.15-1.12,8.69-52.88l14.82,47.04l24.36-6.27c10.65,15.52,15.31,39.45,16.98,50.53c0.6,3.97,1.72,7.84,3.37,11.5
						c43.91,97.11-31.75,146.08-31.75,146.08c27.67,28.78,56.61,11.67,56.61,11.67c57.57-36.43,49.82-82.73,37.14-110.91
						c-5.25-11.68-14.8-20.57-21.72-31.35C355.72,560.96,361.45,516.76,361.45,516.76L361.45,516.76z M34.75,602.17L34.75,602.17
						c3.65,0.72,6,4.25,5.34,7.91c-4.57,25.36-0.02,47.34,8.02,65.35c1.61,3.59-0.95,7.71-4.88,7.84
						c-15.82,0.54-35.61-5.17-47.12-38.48c-0.67-1.93-0.51-4.07-0.89-6.08C-6.67,628.7-12,598.05,34.75,602.17z" class="st18"></path>
				</g>
			</g>
			<g>
				<g>
					<g>
						<path d="M364.56,517.59c0.23-1.83,0.02-0.06-0.02,0.35c-0.08,1.03-0.16,2.05-0.21,3.08c-0.18,3.48-0.17,6.97-0.04,10.46
							c0.45,11.87,2.45,23.65,5.79,35.05c4.55,15.52,11.63,30.55,21.35,43.52c4.56,6.08,9.6,11.81,13.65,18.26
							c2.84,4.52,4.98,9.41,6.86,14.39c6.46,17.13,8.6,36.15,3.5,53.93c-3.11,10.83-8.73,20.71-15.91,29.35
							c-7.98,9.61-18.26,18.59-29.16,24.75c-6.35,3.59-14.14,5.23-21.36,5.36c-15.09,0.27-28.56-7.05-38.92-17.64
							c-1.49-1.52-1.14-3.92,0.61-5.06c1.03-0.67,2.01-1.41,2.98-2.15c0.71-0.54,0.03,0,0.94-0.74c0.62-0.51,1.24-1.01,1.86-1.53
							c1.45-1.23,2.86-2.49,4.24-3.8c7.92-7.47,14.76-16.05,20.18-25.49c7.48-13.02,12.13-27.62,13.32-42.6
							c1.64-20.63-2.85-41.11-10.65-60.14c-2.55-6.21-5.06-11.91-6.13-18.6c-0.76-4.75-1.67-9.48-2.77-14.16
							c-2.84-12.04-6.75-24.16-13.71-34.49c1.21,0.48,2.43,0.97,3.64,1.45c-8.12,2.09-16.24,4.18-24.36,6.27
							c-1.72,0.44-3.44-0.52-3.97-2.22c-4.94-15.68-9.88-31.36-14.82-47.04c2.1-0.3,4.21-0.6,6.31-0.9
							c-0.13,10.8-0.51,21.64-1.86,32.36c-0.67,5.33-1.46,10.79-3.31,15.86c-1.15,3.15-2.69,6.76-6.14,7.84
							c-7.9,2.46-16.2,4.02-24.22,6.01c-13.57,3.37-27.13,6.74-40.7,10.11c-8.45,2.1-16.89,4.19-25.34,6.29
							c-2.06,0.51-4.02-0.94-4.09-3.07c-0.61-17.74-7.86-34.82-16.39-50.12c-3.28-5.88-6.85-11.6-10.68-17.14
							c-1.13-1.63-2.28-3.24-3.46-4.83c-0.3-0.4-2.04-2.65-1.05-1.4c1.78-1.06,3.57-2.11,5.35-3.17
							c6.14,26.45,10.59,53.35,14.9,80.14c0.26,1.62-0.36,3.59-2.22,3.97c-16.39,3.42-32.78,6.84-49.17,10.27
							c-2.37,0.49-4.73,0.99-7.1,1.48c-2.4,0.5-4.58-1.43-3.98-3.93c2.52-10.48-1.2-22.75-4.04-32.8
							c-3.15-11.12-7.09-22.02-11.44-32.72c-0.67-1.66-1.36-3.31-2.06-4.95c-0.52-1.22-0.04-0.13-0.56-1.29
							c1.99-0.56,3.99-1.11,5.98-1.67C96.51,532.35,89.25,560,73,582.8c-1.69-1.29-3.39-2.57-5.08-3.86
							c0.83-0.92,1.49-1.79,1.98-2.93c1.37-3.19,5.79-1.26,6,1.58c0.54,6.96,2.35,14.55,4.64,21.64
							c4.33,13.39,11.65,26.83,23.68,34.75c14.87,9.78,25.96,25.19,34.9,40.32c10.99,18.59,20.23,40.6,19.33,62.6
							c-0.41,10.06-3.21,20.09-9.16,28.31c-7.09,9.79-17.43,16.24-28.65,20.37c-5.65,2.08-11.42,3.71-17.22,4.72
							c-7.45,1.31-15.24,1.17-22.77,1.19c-8.62,0.02-17.25-0.19-25.87-0.49c-2.57-0.09-5.15-0.21-7.72-0.29
							c-3.1-0.09-6.07,0.52-9.14,0.91c-5.83,0.74-11.7,1.09-17.57,1.03c-18.22-0.2-36.56-4.26-52.9-12.39
							c-21.96-10.93-38.14-29.68-47.36-52.24c-8.3-20.31-11.02-42.7-10.79-64.52c0.16-15.63,1.81-31.33,4.86-46.66
							c4.83-24.21,12.77-47.35,20.98-70.59c3.17-8.97,6.3-17.98,8.68-27.2c2.42-9.39,5.05-18.71,8.1-27.92
							c5.27-15.9,11.63-31.5,19.4-46.35c12.15-23.21,27.99-44.82,48.12-61.73c15.5-13.01,33.27-23.1,52.52-29.38
							c14.82-4.84,30.41-7.4,45.99-7.75c9.97-0.23,20.02,0.43,29.84,2.17c1.4,0.25,4.14,0.28,5.35,1.11
							c0.04,0.03-2.27,0.53-1.05-0.1c0.8-0.41,1.92-0.53,2.79-0.75c10.29-2.6,20.96-3.93,31.55-4.39
							c17.78-0.77,35.78,1.19,52.91,6.09c22.21,6.36,42.68,17.73,60.08,32.91c23.48,20.49,40.81,47.28,53.37,75.6
							c3.87,8.72,7.8,17.65,10.03,26.95c2.45,10.18,3.11,20.82,1.84,31.22c-0.49,4.05-6.93,4.15-6.43,0.05
							c1.29-10.62,0.61-21.45-2.18-31.79c-2.52-9.34-6.56-18.4-10.61-27.16c-6.86-14.84-15-29.12-24.75-42.26
							c-15.17-20.44-34.51-37.77-57.3-49.27c-17.23-8.69-36.22-13.88-55.44-15.49c-7.77-0.65-15.59-0.75-23.37-0.33
							c-6.2,0.34-12.15,0.99-17.64,1.92c-3.68,0.62-7.34,1.36-10.95,2.3c-1.59,0.41-2.88,0.95-4.53,0.71
							c-1.75-0.26-3.49-0.78-5.24-1.09c-1.71-0.3-3.42-0.56-5.13-0.8c-1.04-0.14-0.04-0.01-0.77-0.1c-0.58-0.07-1.15-0.14-1.73-0.2
							c-1.12-0.12-2.24-0.23-3.37-0.33c-12.42-1.08-25.27-0.68-37.42,1.22c-16.93,2.65-33.4,8.08-48.47,16.26
							c-19.52,10.59-36.3,25.49-50.08,42.84c-18.87,23.77-31.98,51.82-41.41,80.53c-5.85,17.79-10.05,36-16.29,53.68
							c-7.12,20.18-14.77,40.31-19.07,61.32c-1.82,8.91-3.74,17.93-4.85,26.82c-2.35,18.89-2.77,38.23-0.15,57.11
							c3,21.59,10.38,43.31,24.76,60.04c20.11,23.4,51.41,34.04,81.72,33.51c5.79-0.1,11.58-0.59,17.29-1.5
							c5.36-0.86,10.86-0.22,16.28-0.05c8.04,0.25,16.08,0.43,24.12,0.39c4.78-0.02,9.57-0.1,14.34-0.4
							c1.39-0.09,2.77-0.19,4.16-0.34c0.46-0.05,0.92-0.11,1.38-0.17c-0.98,0.13,0.15-0.02,0.51-0.09c0.49-0.1,2.73-0.64,1.06-0.14
							c5.61-1.66,11.33-2.79,16.84-4.9c10.17-3.89,19.75-10.24,25.57-19.64c10.83-17.47,6.65-39.71-0.21-57.81
							c-7.12-18.79-18.23-36.9-32.02-51.54c-2.49-2.64-5.1-5.17-7.92-7.46c-3.37-2.73-8.3-5.59-11.89-9.01
							c-10.01-9.54-16.25-22.57-20.05-35.7c-1.9-6.55-3.39-13.4-3.92-20.21c2,0.53,4,1.05,6,1.58c-0.69,1.61-1.81,2.94-2.97,4.23
							c-2.4,2.67-7.22-0.85-5.08-3.86c15.65-21.95,22.65-48.23,22.38-75.04c-0.03-2.97,4.64-4.71,5.98-1.67
							c8.16,18.46,15.67,38.23,18.7,58.24c0.92,6.08,1.52,12.41,0.07,18.46c-1.33-1.31-2.66-2.62-3.98-3.93
							c16.39-3.42,32.78-6.84,49.17-10.27c2.37-0.49,4.73-0.99,7.1-1.48c-0.74,1.32-1.48,2.65-2.22,3.97
							c-4.32-26.8-8.77-53.7-14.9-80.14c-0.65-2.82,3.2-5.88,5.35-3.17c6.27,7.92,11.74,16.56,16.61,25.4
							c8.9,16.12,16.25,34.02,16.89,52.63c-1.36-1.02-2.73-2.05-4.09-3.07c19.59-4.87,39.19-9.73,58.78-14.6
							c9.76-2.42,19.52-4.85,29.28-7.27c0.77-0.19,1.55-0.42,2.33-0.58c0.6-0.12-0.33,0.15-0.39,0.21c0.04-0.04,0.3-0.21,0.34-0.21
							c-0.91,0.06-0.37,0.63,0-0.11c0.38-0.76-0.35,0.67,0.19-0.28c0.27-0.47,0.53-0.93,0.78-1.4c0.52-1.01,0.26-0.43,0.67-1.63
							c0.36-1.04,0.69-2.09,0.97-3.16c0.81-3,1.36-6.07,1.82-9.14c1.67-11.25,1.97-22.72,2.11-34.08c0.04-3.65,5.22-4.38,6.31-0.9
							c4.94,15.68,9.88,31.36,14.82,47.04c-1.32-0.74-2.65-1.48-3.97-2.22c8.12-2.09,16.24-4.18,24.36-6.27
							c1.45-0.37,2.83,0.24,3.64,1.45c6.34,9.41,10.29,20.36,13.18,31.27c1.27,4.77,2.33,9.6,3.21,14.46
							c0.92,5.1,1.54,10.2,3.45,15.06c4.47,11.36,9.11,22.29,11.7,34.29c2.11,9.8,3.21,19.86,2.93,29.89
							c-0.79,28.57-12.99,55.62-33.08,75.81c-4.24,4.26-8.84,8.47-13.9,11.75c0.2-1.69,0.41-3.37,0.61-5.06
							c9.02,9.22,20.48,15.82,33.66,15.8c6.22-0.01,13.25-1.51,18.31-4.2c9.95-5.28,19.21-13.55,26.62-21.96
							c7.2-8.17,12.86-17.72,15.92-28.2c4.96-16.95,2.72-34.82-3.47-51.12c-4.54-11.96-12.52-21.16-20.07-31.29
							c-9.27-12.44-16.13-26.89-20.79-41.65c-5.49-17.38-8.79-37.05-6.46-55.32C358.86,511.84,365.08,513.53,364.56,517.59z"></path>
					</g>
				</g>
				<g>
					<g>
						<path d="M-1.69,637.84c0.36,2.44,0.46,4.82,1.28,7.17c0.9,2.62,1.97,5.19,3.15,7.7c1.89,4,4.09,7.89,6.75,11.43
							c3.99,5.34,9.12,9.79,15.19,12.6c4.79,2.22,10.11,3.22,15.36,3.34c1.11,0.03,2.88,0.28,3.92-0.18
							c2.26-1.02,1.18-3.31,0.47-4.95c-1.8-4.2-3.38-8.49-4.68-12.87c-2.91-9.77-4.49-19.98-4.66-30.18
							c-0.09-5.4,0.25-10.79,0.93-16.14c0.55-4.31,2.73-10.03-3.33-10.53c-11.05-0.9-26.55-0.23-32.73,10.75
							C-3.86,622.73-2.96,631.1-1.69,637.84c0.76,4.04-5.42,5.82-6.19,1.76c-1.6-8.49-2.27-17.44,1.55-25.48
							c6.41-13.51,23.05-16.02,36.43-15.46c4.71,0.2,9.26,0.58,11.92,5.07c2.97,5.01,0.32,11.8-0.14,17.17
							c-1.02,12.09-0.01,24.28,3.08,36.01c1.44,5.47,3.3,10.82,5.53,16.01c1.82,4.24,1.77,8.93-2.33,11.89
							c-4.99,3.59-14.52,1.55-20.01,0.01c-7.99-2.24-15.13-6.86-20.66-13.02c-3.66-4.08-6.7-8.69-9.19-13.57
							c-1.38-2.7-2.61-5.49-3.72-8.32c-1.39-3.51-1.91-6.62-2.46-10.31C-8.48,635.55-2.3,633.76-1.69,637.84z"></path>
					</g>
				</g>
			</g>
		</g>
		<g>
			<g>
				<g>
					<g>
						<g>
							<path d="M327.13,716.93c0,0,14.25,25.12-14.85,34.35c0,0,4.91,48.21-64.74,38.72c0,0-28.95,26.06-47.12,1.53
								c0,0-28.4,24.37-51.04,2.13c0,0-25.82-0.9-18.25-18.85c0,0-3.3-9.76,12.35-14.76c0,0,70.89,22.94,128.84-3.22
								C272.32,756.84,308.26,740.66,327.13,716.93z" class="st28"></path>
						</g>
					</g>
					<g>
						<g>
							<g>
								<path d="M329.89,715.29c2.67,4.74,4.16,10.66,3.92,16.08c-0.54,12.12-9.82,19.45-20.65,23.01c0.78-1.04,1.56-2.08,2.34-3.12
									c0.57,5.69-0.72,11.9-2.81,17.15c-4.95,12.45-15.84,20.48-28.63,23.79c-12.19,3.15-24.99,2.55-37.35,0.91
									c1.04-0.28,2.08-0.57,3.12-0.85c-5.46,4.89-12.17,8.81-19.11,11.13c-5.33,1.78-11.1,2.45-16.63,1.25
									c-6.89-1.49-12.26-5.98-16.44-11.47c1.69,0.2,3.37,0.41,5.06,0.61c-5.5,4.69-12.25,8.29-19.12,10.47
									c-13.18,4.17-26.43,1.29-36.46-8.3c0.76,0.31,1.52,0.62,2.28,0.93c-4.78-0.18-9.72-1.26-14.03-3.32
									c-2.99-1.43-5.76-3.63-7.34-6.58c-1.6-2.98-2.47-8.51-0.55-11.57c0.96-1.54,0.47,0.69,0.49,0.06
									c0.01-0.44-0.21-1.13-0.25-1.5c-0.14-1.18-0.09-2.34,0.11-3.51c0.65-3.78,3-6.9,6.01-9.19c2.68-2.03,7.3-4.91,10.76-4.23
									c1.37,0.27,2.74,0.81,4.08,1.18c17.43,4.75,35.55,7.35,53.6,7.85c23.55,0.65,48.12-2.38,69.6-12.56
									c19.58-9.28,39.27-21.83,52.96-38.83c2.6-3.23,7.16,1.31,4.58,4.51c-14.02,17.42-34.36,30.49-54.46,39.95
									c-25.28,11.9-54.17,14.82-81.79,12.92c-11.66-0.8-23.28-2.44-34.71-4.87c-3.61-0.77-7.21-1.62-10.77-2.57
									c-1.46-0.39-3.35-1.33-4.88-1.4c-0.05,0-0.1-0.05-0.14-0.05c2-0.02-0.59,0.89-0.34,0.69c-1.22,0.95-3.02,1.35-4.32,2.29
									c-1.6,1.15-2.92,2.56-3.62,4.41c-0.33,0.88-0.35,2.56-0.31,2.92c-0.06-0.54,0.1,0.27,0.11,0.41
									c0.11,1.26-0.11,2.01-0.51,3.19c-2.87,8.5,5.03,11.76,12.03,12.98c1.34,0.23,1.69,0.24,3.16,0.38
									c2.61,0.24,3.88,2.17,5.88,3.7c5.94,4.56,13.29,6.41,20.7,5.43c5.76-0.77,11.29-3.04,16.29-5.95c1.72-1,3.4-2.09,5.01-3.27
									c0.25-0.19,1.59-1.21,0.85-0.63c0.18-0.14,0.35-0.28,0.52-0.43c1.71-1.46,3.73-1.13,5.06,0.61
									c4.41,5.79,10.6,9.28,17.96,8.91c5.86-0.29,11.5-2.72,16.48-5.67c2.87-1.7,5.3-3.65,7.55-5.33
									c2.7-2.03,7.22-0.39,10.42-0.14c4.15,0.33,8.32,0.45,12.48,0.3c10.45-0.39,21.83-2.65,29.98-9.68
									c5.23-4.52,8.52-10.3,10.08-16.74c0.74-3.04,0.88-4.11,0.98-7.09c0.03-1.04,0.05-2.1-0.06-3.14
									c-0.14-1.43,1.08-2.7,2.34-3.12c8.61-2.83,16.2-8.46,15.99-18.26c-0.06-2.82-0.7-5.57-1.65-8.22
									c-0.57-1.6-0.54-1.64-1.38-3.14C322.34,714.97,327.86,711.68,329.89,715.29z"></path>
							</g>
						</g>
					</g>
				</g>
			</g>
		</g>
		<g>
			<g>
				<g>
					<g>
						
							<ellipse ry="20.16" rx="32.08" cy="628.14" cx="328.42" class="st11" transform="matrix(0.9705 -0.241 0.241 0.9705 -141.6818 97.6459)"></ellipse>
					</g>
				</g>
			</g>
			<g>
				<g>
					<g>
						<g>
							<g>
								<path d="M335.25,616.45c-0.56,4.18-1.11,8.36-1.67,12.54c-0.08,0.6-0.16,1.2-0.24,1.8
									c-0.14,1.03-1.15,1.93-2.42,1.96c-1.18,0.02-2.25-0.83-2.11-1.87c0.56-4.18,1.11-8.36,1.67-12.54
									c0.08-0.6,0.16-1.2,0.24-1.8c0.14-1.03,1.15-1.93,2.42-1.96C334.32,614.56,335.38,615.41,335.25,616.45L335.25,616.45z" class="st12"></path>
							</g>
						</g>
					</g>
				</g>
				<g>
					<g>
						<g>
							<g>
								<path d="M323.69,620.62c-0.56,4.18-1.11,8.36-1.67,12.54c-0.08,0.6-0.16,1.2-0.24,1.8
									c-0.14,1.03-1.15,1.93-2.42,1.96c-1.18,0.02-2.25-0.83-2.11-1.87c0.56-4.18,1.11-8.36,1.67-12.54
									c0.08-0.6,0.16-1.2,0.24-1.8c0.14-1.03,1.15-1.93,2.42-1.96C322.76,618.72,323.83,619.58,323.69,620.62L323.69,620.62z" class="st12"></path>
							</g>
						</g>
					</g>
				</g>
			</g>
		</g>
		<g>
			<g>
				<g>
					<path d="M30.35,647.33l2.05-1.56c0,0-0.65-0.86-1.84-2.15c-3.98-4.31-14.6-14.02-27.3-11.14l0.57,2.51
						c11.39-2.58,21.17,6.4,24.85,10.38C29.74,646.53,30.33,647.31,30.35,647.33z" class="st18"></path>
				</g>
			</g>
			<g>
				<g>
					<path d="M14.87,652.34c0.31-2.97,1.42-5.06,3.31-6.2c4.38-2.65,11.68,0.22,11.76,0.24l0.96-2.39
						c-0.35-0.14-8.55-3.37-14.04-0.06c-2.62,1.58-4.15,4.32-4.54,8.14L14.87,652.34z" class="st18"></path>
				</g>
			</g>
		</g>
		<g>
			<g>
				<g>
					<path d="M96.48,787.84c7.87-6.03,15.38-12.78,21.01-21.18c5.62-8.35,9.05-18.28,9.61-28.46
						c0.6-10.2-1.56-20.42-5.32-29.83c-3.78-9.43-8.99-18.18-14.89-26.35l-8.99-11.91c-2.85-4-5.74-7.99-8.33-12.16
						c-5.32-8.26-10.15-16.83-14.33-25.7c-4.17-8.87-7.94-17.93-11.02-27.23c-3.05-9.3-5.52-18.79-7.37-28.39
						c-1.85-9.6-2.89-19.34-3.46-29.08c-0.09-2.44-0.27-4.87-0.29-7.32l-0.01-7.36c-0.11-4.91,0.2-9.8,0.41-14.7l0.17-3.67
						l0.35-3.65l0.69-7.3c0.27-2.43,0.7-4.83,1.04-7.24c0.37-2.41,0.67-4.84,1.22-7.2c1.76-9.58,4.46-18.93,7.89-27.95
						c6.86-18.01,18.28-34.34,33.86-45.43c3.8-2.89,7.99-5.21,12.2-7.46c4.3-2.07,8.73-3.92,13.3-5.37
						c4.58-1.42,9.26-2.53,13.99-3.26c4.69-0.73,9.65-1.14,14.13-0.98l-1.29-6.16c-1.25,0.73-2.04,1.32-2.95,2.03
						c-0.86,0.7-1.7,1.41-2.47,2.17c-1.58,1.49-3.04,3.06-4.37,4.72c-2.71,3.29-5.01,6.83-6.98,10.52
						c-3.97,7.37-6.71,15.24-8.69,23.21c-3.8,15.99-4.96,32.43-3.66,48.68c0.63,8.12,1.86,16.17,3.65,24.08
						c0.86,3.95,1.94,7.91,2.9,11.74c0.93,3.87,1.7,7.79,2.31,11.72c1.18,7.87,1.61,15.9,0.55,23.79
						c-0.62,3.92-1.49,7.82-3.04,11.51c-1.6,3.65-3.79,7.04-6.58,9.96c2.95-2.75,5.36-6.05,7.19-9.68
						c1.77-3.66,2.94-7.59,3.72-11.58c1.42-8.03,1.31-16.23,0.45-24.3c-0.45-4.03-1.07-8.05-1.86-12.03c-0.83-4-1.7-7.85-2.39-11.79
						c-1.41-7.85-2.31-15.77-2.77-23.7c-0.87-15.85,0.7-31.84,4.73-47.06c2.09-7.57,4.88-14.93,8.71-21.64
						c1.9-3.36,4.08-6.53,6.57-9.39c1.22-1.45,2.54-2.8,3.91-4.03c0.68-0.64,1.39-1.21,2.11-1.76c0.68-0.52,1.53-1.1,2.02-1.38
						l9.77-5.61l-11.06-0.55c-5.45-0.27-10.45,0.13-15.59,0.84c-5.09,0.72-10.12,1.84-15.06,3.3c-4.93,1.49-9.72,3.42-14.4,5.6
						c-4.59,2.35-9.15,4.83-13.31,7.89c-17.03,11.9-29.36,29.61-36.69,48.59c-7.48,19.04-10.86,39.32-11.82,59.41
						c-0.2,5.03-0.49,10.07-0.36,15.1l0.04,7.54c0.03,2.52,0.22,5.05,0.33,7.57c0.6,10.09,1.87,20.14,3.89,30.04
						c4.08,19.78,10.63,39.05,19.82,56.98c8.95,18,20.85,34.65,33.43,49.84c5.93,7.78,11.17,16.12,15.02,25.06
						c3.87,8.9,6.39,18.49,6.2,28.22c-0.14,9.7-2.99,19.36-8.15,27.74C110.99,774.21,104.05,781.4,96.48,787.84z" class="st29"></path>
				</g>
			</g>
		</g>
		<g>
			<g>
				<g>
					<path d="M216.15,554.99c1.49-3.38,3.27-6.7,4.33-10.27c0.58-1.77,1.3-3.51,1.76-5.32l1.42-5.44
						c1.52-7.33,2.39-14.86,2.24-22.41c-0.12-7.54-1.1-15.05-2.6-22.43c-1.65-7.35-3.93-14.55-6.62-21.56
						c-5.57-13.97-12.99-27.1-21.69-39.23c-8.69-12.13-18.62-23.37-29.81-33.13c4.86,5.6,9.54,11.32,13.89,17.28
						c4.43,5.89,8.62,11.94,12.6,18.11c3.92,6.21,7.7,12.49,11.06,18.99c3.39,6.47,6.58,13.06,9.17,19.87
						c2.69,6.77,4.91,13.71,6.66,20.76c1.71,7.07,2.76,14.26,3.34,21.51c0.48,7.26,0.18,14.55-0.71,21.81
						C220.36,540.81,218.35,547.89,216.15,554.99z" class="st29"></path>
				</g>
			</g>
		</g>
		<g>
			<g>
				<g>
					<path d="M211.9,416.26c3.59,5.15,6.95,10.36,10.1,15.66c3.76,4.82,7.23,9.86,10.42,15.07
						c6.35,10.42,11.56,21.55,14.75,33.23c3.11,11.66,4.16,23.92,1.93,35.71c-0.98,5.91-2.94,11.62-5.42,17.06
						c-1.66,5.85-4.49,11.31-7.27,16.96c4.42-4.41,8.69-9.24,11.94-14.81c2.65-5.82,4.75-11.96,5.81-18.29
						c2.39-12.65,1.24-25.72-2.03-37.97c-3.35-12.28-8.78-23.83-15.33-34.58c-3.28-5.38-6.89-10.54-10.7-15.55
						C221.67,424.25,217.04,419.93,211.9,416.26z" class="st29"></path>
				</g>
			</g>
		</g>
		<g>
			<g>
				<g>
					<path d="M180.15,385.45c18.62,1.45,36.86,5.32,54.02,11.63c17.09,6.39,33.1,15.62,45.8,28.35
						c6.36,6.34,11.77,13.58,16.26,21.36c1.07,1.98,2.29,3.88,3.25,5.92l2.81,6.16c0.97,2.04,1.57,4.24,2.39,6.35
						c0.8,2.12,1.62,4.24,2.16,6.46c5.12,17.49,6.88,36.05,6.94,54.75c3.14-18.43,3.14-37.64-1.11-56.29
						c-2.16-9.29-5.4-18.44-10.05-26.91c-4.62-8.47-10.42-16.33-17.18-23.25c-6.92-6.76-14.68-12.61-23.02-17.37
						c-8.38-4.69-17.2-8.51-26.32-11.21C217.9,385.93,198.82,383.7,180.15,385.45z" class="st29"></path>
				</g>
			</g>
		</g>
		<g>
			<g>
				<g>
					<path d="M50.57,595.46c0.86-0.31,0.59-0.37,0,0.04c-0.24,0.17-0.51,0.33-0.76,0.48c-0.96,0.59,0.35-0.42-0.51,0.4
						c-0.37,0.36-0.75,0.7-1.11,1.07c-0.2,0.21-0.39,0.44-0.59,0.66c-0.56,0.63-0.35,0.43-0.34,0.41c-0.98,1.36-1.8,2.82-2.48,4.35
						c-0.5,1.13-1.38,3.94-1.82,5.93c-0.61,2.8-0.9,5.57-1.01,8.43c-0.36,8.83,0.88,17.66,2.71,26.28
						c3.37,15.83,8.76,31.19,14.78,46.19c1.54,3.84-4.66,5.56-6.19,1.76c-5.77-14.37-10.95-29.07-14.34-44.2
						c-2.13-9.47-3.68-19.26-3.42-28.99c0.23-8.93,1.94-19.56,8.8-26.02c1.32-1.24,2.81-2.36,4.53-2.99
						C52.71,587.85,54.44,594.05,50.57,595.46L50.57,595.46z"></path>
				</g>
			</g>
		</g>
		<g>
			<g>
				<g>
					<path d="M157.82,381.52c-9.53-2.85-19.46-4.31-29.44-4.83c-9.98-0.52-20.06-0.03-29.99,1.66
						c-9.93,1.71-19.67,4.74-28.9,8.97c-9.18,4.33-17.85,9.88-25.49,16.63c-15.54,13.3-26.81,31.33-32.98,50.81
						c-3.12,9.71-4.8,20.03-5.4,30.05c-0.73,9.85-1.62,19.7-2.66,29.53c-1.99,19.66-4.56,39.27-7.9,58.73
						c-3.21,19.48-7.36,38.8-12.48,57.83C-22.66,649.87-29,668.61-37.8,686.2c-4.34,8.82-9.42,17.29-15.54,24.99
						c-6.14,7.65-13.32,14.61-21.86,19.72c8.95-4.37,16.78-10.92,23.43-18.4c6.69-7.47,12.38-15.81,17.32-24.53
						c9.78-17.52,17.01-36.32,22.81-55.43c11.59-38.29,18.02-77.84,22.27-117.44c1-9.91,1.83-19.84,2.5-29.79
						c0.5-9.78,2.1-19.19,4.85-28.44c5.43-18.44,15.81-35.42,30.02-48.49c7.03-6.63,15.13-12.05,23.7-16.57
						c8.64-4.41,17.88-7.69,27.43-9.8C118.2,377.67,138.37,377.71,157.82,381.52z" class="st29"></path>
				</g>
			</g>
		</g>
		<g>
			<g class="st17">
				<g>
					<g>
						<g>
							<path d="M-7.69,442.94c4.87-12.98,23.49-52.4,71.37-56.65c0,0-37.49,15.66-50.2,44.45
								c-1.29,2.93-2.21,6-2.94,9.11c-1.29,5.47-6.96,18.13-13.04,17.47c-2.84-0.31-2.93-0.81-4.19-2.8
								C-8.85,451.07-9.12,446.76-7.69,442.94z" class="st0"></path>
						</g>
					</g>
				</g>
			</g>
			<g class="st17">
				<g>
					<g>
						<g>
							<path d="M1.21,475.91c-1.43,5.87-6.53,9.67-11.37,8.48c-4.85-1.18-7.62-6.9-6.18-12.77
								c1.43-5.87,6.53-9.67,11.37-8.48C-0.12,464.33,2.65,470.04,1.21,475.91z" class="st0"></path>
						</g>
					</g>
				</g>
			</g>
		</g>
		<g>
			<g>
				<path d="M95.48,518.9c-1.58,32.87-19.65,58.93-19.65,58.93c-0.11,15.65,10.77,36.53,10.77,36.53
					c0.76,9.58,31.68,32.87,31.68,32.87c66.82,81.08,31.39,112.08,31.39,112.08l14.79,0.6c15.87-47.52-3.8-83.52-20.43-103.58
					c-7.44-8.97-16.86-15.95-27.14-21.46c-22.32-11.96-35.47-42.98-35.47-42.98c22.65-7.17,21.51-52.27,21.51-52.27L95.48,518.9z" class="st30"></path>
			</g>
		</g>
		<g>
			<g>
				<g>
					<g>
						
							<ellipse ry="22.47" rx="35.75" cy="672.61" cx="143.25" class="st11" transform="matrix(0.9798 -0.1999 0.1999 0.9798 -131.5933 42.2244)"></ellipse>
					</g>
				</g>
			</g>
			<g>
				<g>
					<g>
						<g>
							<g>
								<path d="M151.4,659.92c-0.81,4.63-1.63,9.26-2.44,13.89c-0.12,0.66-0.23,1.33-0.35,1.99
									c-0.2,1.14-1.38,2.1-2.78,2.07c-1.32-0.03-2.47-1.03-2.27-2.18c0.81-4.63,1.63-9.26,2.44-13.89
									c0.12-0.66,0.23-1.33,0.35-1.99c0.2-1.14,1.38-2.1,2.78-2.07C150.46,657.77,151.61,658.77,151.4,659.92L151.4,659.92z" class="st12"></path>
							</g>
						</g>
					</g>
				</g>
				<g>
					<g>
						<g>
							<g>
								<path d="M138.34,664.02c-0.81,4.63-1.63,9.26-2.44,13.89c-0.12,0.66-0.23,1.33-0.35,1.99
									c-0.2,1.14-1.38,2.1-2.78,2.07c-1.32-0.03-2.47-1.03-2.27-2.18c0.81-4.63,1.63-9.26,2.44-13.89
									c0.12-0.66,0.23-1.33,0.35-1.99c0.2-1.14,1.38-2.1,2.78-2.07C137.39,661.87,138.54,662.87,138.34,664.02L138.34,664.02z" class="st12"></path>
							</g>
						</g>
					</g>
				</g>
			</g>
		</g>
		<g class="st31">
			<g>
				<path d="M333.5,746.5c23.21-5.43,38.05-16.18,44.13-31.94c12.02-31.18-14.62-70.24-15.76-71.88l-4.23,2.93
					c0.26,0.38,26.23,38.49,15.18,67.12c-5.43,14.07-19.05,23.76-40.49,28.77L333.5,746.5z" class="st0"></path>
			</g>
		</g>
		<g>
			<g>
				<path d="M359.95,644.42c0,0,53.8,76.84-23.76,98.75c0,0,5.13-17.43-2.88-26.99
					C333.32,716.18,358.9,692.02,359.95,644.42z" class="st32"></path>
			</g>
		</g>
	</g>
	<g>
		<path d="M246.94,704.42c-6.58,0-13.06-1.79-18.85-5.27c-8.39-5.05-14.31-13.07-16.67-22.57l9.07-2.25
			c1.76,7.08,6.17,13.05,12.42,16.82c6.25,3.76,13.59,4.87,20.67,3.11c7.08-1.76,13.05-6.17,16.82-12.42
			c3.76-6.25,4.87-13.59,3.11-20.67l9.07-2.25c2.36,9.5,0.88,19.36-4.17,27.75c-5.05,8.39-13.07,14.31-22.57,16.67
			C252.88,704.05,249.9,704.42,246.94,704.42z"></path>
	</g>
	<g>
		<defs>
			
				<rect height="214.51" width="84.34" transform="matrix(0.042 -0.9991 0.9991 0.042 -739.7016 1045.9589)" y="801.47" x="133.43" id="SVGID_17_"></rect>
		</defs>
		<clipPath id="SVGID_2_">
			<use style="overflow:visible;" xlink:href="#SVGID_17_"></use>
		</clipPath>
	</g>
</g>
<g>
	<polyline points="467.13,448.11 469.82,416.26 495.87,432.51 506.12,389.8 526.27,424.05 544.44,403.5 555.77,429.43" class="st47"></polyline>
</g>
<g>
	<g>
		<path d="M560.39,426.73c-3.77-8.64-7.55-17.29-11.32-25.93c-1.35-3.08-6.31-3.46-8.4-1.08c-6.06,6.85-12.12,13.7-18.18,20.54
			c2.8,0.36,5.6,0.72,8.4,1.08c-6.72-11.41-13.43-22.83-20.15-34.24c-2.27-3.86-8.69-3.26-9.78,1.28
			c-3.42,14.24-6.83,28.47-10.25,42.71c2.62-1.07,5.24-2.13,7.86-3.2c-8.68-5.42-17.37-10.83-26.05-16.25
			c-3.7-2.3-7.73,0.78-8.05,4.62c-0.9,10.62-1.8,21.23-2.69,31.85c-0.58,6.86,10.12,6.82,10.7,0c0.9-10.62,1.8-21.23,2.69-31.85
			c-2.68,1.54-5.37,3.08-8.05,4.62c8.68,5.42,17.37,10.83,26.05,16.25c2.87,1.79,7.07,0.11,7.86-3.2
			c3.42-14.24,6.83-28.47,10.25-42.71c-3.26,0.43-6.52,0.85-9.78,1.28c6.72,11.41,13.43,22.83,20.15,34.24
			c1.66,2.82,6.09,3.7,8.4,1.08c6.06-6.85,12.12-13.7,18.18-20.54c-2.8-0.36-5.6-0.72-8.4-1.08c3.77,8.64,7.55,17.29,11.32,25.93
			C553.9,438.43,563.12,432.99,560.39,426.73L560.39,426.73z"></path>
	</g>
</g>
<g>
	<defs>
		<rect height="754.54" width="547.58" y="270.98" x="482.55" id="SVGID_19_"></rect>
	</defs>
	<clipPath id="SVGID_4_">
		<use style="overflow:visible;" xlink:href="#SVGID_19_"></use>
	</clipPath>
	<g class="st27">
		<g>
			<g>
				<g>
					<g>
						<path d="M932.99,745.54c5.51,0,5.52-8.56,0-8.56C927.49,736.98,927.48,745.54,932.99,745.54L932.99,745.54z"></path>
					</g>
				</g>
			</g>
			<g>
				<g>
					<path d="M932.99,741.26c0,0,77.47-15.24,155.24-68.66c0,0,56.01,87.9,34.61,133.67c0,0-38.72,38.86-105.75,60.34
						l-1.54,0.79c18.51,76.31,18.51,158.14,18.51,158.14h-180.5H692.65l15.02-144.9c-11.74,5.99-95.72-68.62-95.72-68.62
						c-0.53-13.85,32.65-124.11,32.65-124.11c73.78,65.04,107.28,45.61,107.28,45.61C798.81,784.71,932.99,741.26,932.99,741.26" class="st6"></path>
				</g>
				<g>
					<path d="M1037.99,1025.53c-0.02-36.17-3.47-72.62-8.84-108.35c-2.57-17.07-5.78-34.04-9.82-50.83
						c-0.6,1.48-1.21,2.96-1.81,4.44c6.18-3.17,13.52-4.78,20.01-7.37c6.74-2.69,13.4-5.6,19.94-8.74
						c11.51-5.54,22.68-11.8,33.39-18.76c11.73-7.61,23.85-15.97,33.77-25.93c4.02-4.03,5.26-11.21,6.1-16.66
						c1.52-9.89,0.91-19.87-0.7-29.7c-3.4-20.78-11.31-40.78-20.33-59.72c-5.42-11.38-11.31-22.67-18.08-33.31
						c-1.08-1.7-3.57-2.65-5.38-1.41c-43.6,29.8-92.77,52.67-143.98,65.84c-3.42,0.88-6.85,1.74-10.32,2.43
						c-4.96,0.98-2.86,8.57,2.09,7.59l0,0c10.52-2.08,20.91-5.19,31.12-8.43c25.47-8.07,50.3-18.3,74.11-30.43
						c17.62-8.97,34.64-19.05,50.96-30.21c-1.79-0.47-3.59-0.94-5.38-1.41c15.5,24.37,28.45,51.91,35.31,79.98
						c2.36,9.67,3.92,19.61,3.59,29.6c-0.19,5.86-0.84,15.11-4.08,19.72c-2.03,2.9-5.89,5.36-8.58,7.59
						c-6.34,5.27-12.99,10.16-19.82,14.77c-10.99,7.42-22.48,14.09-34.36,19.98c-7.27,3.61-14.69,6.93-22.24,9.92
						c-6.89,2.73-14.54,4.47-21.11,7.85c-1.58,0.81-2.2,2.81-1.81,4.44c12.27,50.99,18.34,104.59,18.37,157.09"></path>
				</g>
				<g>
					<path d="M696.58,1025.53c4.39-42.33,8.77-84.66,13.16-126.99c0.62-5.97,1.24-11.94,1.86-17.91c0.34-3.27-3.52-4.49-5.92-3.4
						c1.22-0.55-0.17-0.22-0.07-0.2c-1.18-0.28-2.32-0.59-3.45-1.05c-2.88-1.15-5.6-2.76-8.25-4.35
						c-8.07-4.83-15.69-10.43-23.18-16.09c-15.76-11.92-30.94-24.61-45.9-37.51c-3.38-2.92-6.76-5.85-10.1-8.81
						c0.38,0.93,0.77,1.85,1.15,2.78c-0.12-5.32,1.71-11.4,3.02-17.03c2.35-10.13,5.02-20.18,7.73-30.22
						c5.63-20.79,11.6-41.49,17.7-62.16c1.35-4.56,2.69-9.12,4.06-13.67c-2.19,0.58-4.38,1.16-6.58,1.74
						c20.72,18.18,43.73,35.65,70.08,44.73c11.33,3.9,24.2,6.41,36.09,3.61c1.98-0.47,4.1-1.09,5.88-2.11
						c-1.59-0.21-3.18-0.41-4.77-0.62c20.73,22.25,54.09,26.49,82.93,26.09c28.47-0.39,56.96-5.32,84.49-12.38
						c5.87-1.51,11.75-3.08,17.52-4.94c4.8-1.55,2.75-9.15-2.09-7.59c-15.11,4.88-30.77,8.42-46.36,11.32
						c-29.33,5.45-60.77,8.83-90.26,2.69c-15.19-3.16-29.93-9.22-40.67-20.75c-1.19-1.28-3.29-1.46-4.77-0.62
						c-0.28,0.16-0.58,0.3-0.88,0.42c1.47-0.61-1.36,0.44-1.98,0.61c-3.79,1.05-6.64,1.23-10.84,1.13
						c-16.56-0.39-32.65-7.81-46.68-16.01c-15.12-8.83-28.98-19.62-42.12-31.15c-2.23-1.95-5.69-1.22-6.58,1.74
						c-10.45,34.72-20.93,69.59-29.23,104.9c-1.44,6.13-3.71,13.1-3.56,19.47c0.09,4.12,4.72,6.72,7.56,9.19
						c15.29,13.28,30.84,26.29,46.89,38.65c9.05,6.97,18.25,13.92,28.09,19.74c5.22,3.08,12.86,8.06,19.1,5.23
						c-1.97-1.13-3.95-2.27-5.92-3.4c-4.39,42.33-8.77,84.66-13.16,126.99c-0.62,5.97-1.24,11.94-1.86,17.91"></path>
				</g>
			</g>
		</g>
		<g>
			<g>
				<path d="M1102.96,617.58c-6.53,19.14-9.26,41.46-80.78,41.46l9.26-76.37
					C1049.08,565.84,1117.61,553.42,1102.96,617.58z" class="st2"></path>
			</g>
			<g>
				<path d="M644.91,584.02c0,0,44.77,41.23,48.83,65.61c-0.07-32.12-11.88-72.63-1.43-108.11
					C699.03,532.22,639.79,540.54,644.91,584.02z" class="st2"></path>
			</g>
			<g>
				<g>
					<path d="M751.29,458.39c-46.08,30.95-65.76,87.67-61.03,141.16c-3.68,17.43-38.99,124.56,86.82,170.06
						c98.02,68.98,383.87-97.58,210.75-305.1C935.96,409.07,840.35,396.17,751.29,458.39z" class="st3"></path>
				</g>
				<g>
					<path d="M749.65,455.59c-67.34,42.93-62.58,126.39-69.95,196.12c-1.41,86.05,90.32,134.47,166.88,135.22
						c78.05,1.76,144.14-53.05,180.82-118.32C1103.19,488.28,906.8,337.77,749.65,455.59c-3.4,2.37-0.17,7.99,3.27,5.6
						c38.49-25.94,85.12-43.41,132-41.31c124.52,6.57,197.74,168.8,122.74,267.49c-64.78,108.08-227.38,127.83-304.53,24.34
						c-31.68-48.17-7.5-105.46-7.97-158.14c6.16-36.81,27.04-70.99,57.76-92.38C756.31,458.81,753.08,453.18,749.65,455.59z"></path>
				</g>
			</g>
			<g>
				<g>
					<g>
						<path d="M943.6,590.47c-1.01,41.59-76.99,37.3-74.49-3.72C870.12,545.17,946.11,549.46,943.6,590.47z" class="st0"></path>
					</g>
				</g>
				<g>
					<g>
						<path d="M875.44,587.08c-1.97,32.57,57.53,35.94,58.34,2.91C935.75,557.41,876.25,554.04,875.44,587.08z" class="st7"></path>
					</g>
				</g>
				<g>
					<g>
						<path d="M860,579.17c36.19-47.58,68.84-17.18,105.44,5.98C926.31,568.59,900.56,537.65,860,579.17z" class="st7"></path>
					</g>
				</g>
				<g>
					<g>
						<path d="M943.17,599.25c-7.02,16.27-25.68,25.35-42.97,23.14l0.21,0.01c-12.45-0.97-23.83-7.97-31.66-17.44
							C890.48,623.46,925.56,623.28,943.17,599.25z" class="st7"></path>
					</g>
				</g>
				<g>
					<g>
						<path d="M960.27,559.17c-11.84,5.86-26.8,6.26-38.79,0.61C934.48,561.48,947.31,561.07,960.27,559.17z" class="st7"></path>
					</g>
				</g>
				<g>
					<g>
						<path d="M968.38,567.19c-10.6,5.11-23.93,4.99-34.46-0.27C945.54,568.22,956.68,568.32,968.38,567.19z" class="st7"></path>
					</g>
				</g>
				<g>
					<g>
						<path d="M907.76,584.44c-0.54,9.31,14.71,10.19,14.96,0.74C923.26,575.88,908.02,575,907.76,584.44z" class="st0"></path>
					</g>
				</g>
				<g>
					<g>
						<path d="M899.7,599.25c-0.42,4.63,14.96,5.45,14.96,0.75C915.08,595.37,899.69,594.55,899.7,599.25z" class="st0"></path>
					</g>
				</g>
				<g>
					<g>
						<path d="M860.76,559.49c20.81-19.54,55.4-19.45,78.87-4.6C915.3,542,882.76,541.8,860.76,559.49z" class="st7"></path>
					</g>
				</g>
			</g>
			<g>
				<g>
					<g>
						<path d="M773.73,579.84c-1.83,36.58-63.98,32.46-60.95-4.04C714.6,539.21,776.75,543.33,773.73,579.84z" class="st0"></path>
					</g>
				</g>
				<g>
					<g>
						<path d="M767.72,579.44c-1.46,29.05-50.14,25.83-47.74-3.17C721.44,547.22,770.12,550.45,767.72,579.44z" class="st7"></path>
					</g>
				</g>
				<g>
					<g>
						<path d="M781,573.99c-29.57-40.41-52.22-16.14-86.35-5.08C727.3,551.5,755.92,529.02,781,573.99z" class="st7"></path>
					</g>
				</g>
				<g>
					<g>
						<path d="M711.51,583.51c11.46,22.25,40.57,26.82,60.05,12.33c-7.03,7.38-16.94,12.63-27.33,12.25l0.17,0.01
							C729.51,608.35,715.5,597.86,711.51,583.51z" class="st7"></path>
					</g>
				</g>
				<g>
					<g>
						<path d="M701.19,546.54c10.34,2.94,20.76,4.56,31.51,4.34C722.43,554.72,710.15,552.8,701.19,546.54z" class="st7"></path>
					</g>
				</g>
				<g>
					<g>
						<path d="M693.87,552.81c9.42,2.14,18.48,3.15,28.07,3.14C712.9,559.57,701.9,558.29,693.87,552.81z" class="st7"></path>
					</g>
				</g>
				<g>
					<g>
						<path d="M753.01,573.73c-0.44,8.3-12.91,7.48-12.24-0.81C741.2,564.61,753.67,565.44,753.01,573.73z" class="st0"></path>
					</g>
				</g>
				<g>
					<g>
						<path d="M755.5,588.11c-0.11,4.14-12.68,3.31-12.24-0.81C743.37,583.15,755.94,583.99,755.5,588.11z" class="st0"></path>
					</g>
				</g>
				<g>
					<g>
						<path d="M782.15,556.59c-15.76-17.39-42.72-20.92-63.77-11.79C738.88,533.84,767.56,537.74,782.15,556.59z" class="st7"></path>
					</g>
				</g>
			</g>
			<g>
				<g>
					<g>
						<g>
							<path d="M793.17,664.06l58.75,2.27c40.32,9.84-13.91,84.58-50.57,58.1C787.03,721.91,758.8,667.09,793.17,664.06
								z" class="st8"></path>
						</g>
					</g>
					<g>
						<g>
							<path d="M855.66,709.01c-35.01-36.02-71.75-2.98-72.32-2.52c4.88,15.84,46.4,40.61,72.54,2.79L855.66,709.01z" class="st9"></path>
						</g>
					</g>
					<g>
						<g>
							<path d="M804.74,664.5l34.89,1.35C849.52,682.76,798.17,689.29,804.74,664.5z" class="st0"></path>
						</g>
					</g>
				</g>
				<g>
					<g>
						<path d="M813.84,727.58c-1.22-0.83-1.77-2.87-1.88-4.79l0,0c-0.21-3.69,1.86-6.81,4.64-6.97
							c5.44,0.34,17.43-4,17.47,5.7l0,0C834.94,729.47,822.61,731.4,813.84,727.58z" class="st0"></path>
					</g>
				</g>
			</g>
			<g>
				<g>
					<path d="M835.31,627.99c0.09,12.28-25.91,11.06-24.68-1.15C812.18,608.14,835.51,609.23,835.31,627.99z" class="st10"></path>
				</g>
			</g>
			<g>
				<g>
					<g>
						<path d="M746.98,648.79c-0.56,33.16-83.95,29.27-81.41-3.8C666.13,611.83,749.52,615.72,746.98,648.79z" class="st11"></path>
					</g>
				</g>
				<g>
					<g>
						<g>
							<g>
								<path d="M694.86,634.03c3.44,5.62,2.49,17.61,9.43,19.24C710.47,654.13,697.68,620.59,694.86,634.03
									L694.86,634.03z" class="st12"></path>
							</g>
						</g>
					</g>
					<g>
						<g>
							<g>
								<path d="M710.3,636.35c3.44,5.62,2.49,17.61,9.43,19.24C725.91,656.4,713.1,622.92,710.3,636.35L710.3,636.35z" class="st12"></path>
							</g>
						</g>
					</g>
				</g>
			</g>
			<g>
				<g>
					<g>
						<path d="M973.27,667.23c0.93,36.95-92.1,36.52-90.83-0.42C881.51,629.87,974.54,630.29,973.27,667.23z" class="st11"></path>
					</g>
				</g>
				<g>
					<g>
						<g>
							<g>
								<path d="M914.55,653.23c4.09,6.09,3.59,19.5,11.41,20.98c6.07-4.7-4.42-15.72-5.14-22.38
									C919.88,648.67,913.46,649.69,914.55,653.23L914.55,653.23z" class="st12"></path>
							</g>
						</g>
					</g>
					<g>
						<g>
							<g>
								<path d="M931.84,655.1c4.09,6.09,3.59,19.5,11.4,20.98c6.07-4.7-4.42-15.72-5.14-22.38
									C937.18,650.54,930.75,651.55,931.84,655.1L931.84,655.1z" class="st12"></path>
							</g>
						</g>
					</g>
				</g>
			</g>
			<g>
				<path d="M841.35,599.23c-0.57-0.58-14.16-14.18-30.46-3.62l-4.23-6.53c17.39-11.27,33.95-1.83,40.28,4.74L841.35,599.23z"></path>
			</g>
			<g>
				<g>
					<g>
						<g>
							<path d="M662.87,594.51l-0.17-37.27c8.68-15.42,24.24-13.82,24.24-13.82c125.39-16.16,122.55-80.01,136.98-88.58
								c14.43-8.56,21.01,11.39,21.01,11.39S891.41,575,1080.3,581.85c0,0,65.84,30.79,109.84-55.76
								c-136.85,15.69-126.92-312.46-316.39-201.35c0,0-160.38-95.16-215.99,154.93c-7.71,34.66-34.88,43.51-71.19,50.49
								C586.57,530.16,604.6,585.62,662.87,594.51z" class="st2"></path>
						</g>
					</g>
				</g>
				<g>
					<g>
						<g>
							<g>
								<path d="M698.64,341.6c-59.57,77.37-17.79,161.5-120.67,175.33c0,0,19,50.37,66.94,67.08l10.24-39.21
									c8.93-16.23,24.72-14.66,24.72-14.66c127.53-17.81,125.07-84.74,139.8-93.82c35.93-11.47,31.36,123.72,259.66,131.41
									c0,0.01,58.43,28.26,106.14-47.26c-107.75-10.89-141.57-336.26-314.26-220.9c0,0-85.21-51.8-154.31,19.55" class="st16"></path>
							</g>
							<g>
								<path d="M695.84,339.97c-40.37,45.9-34.74,135.37-74.89,159.79c-10.5,9.68-41.87,8.78-46.12,18.03
									c12.19,30.98,37.64,58.13,69.21,69.35c9.87-4.89,8.74-30.95,14.32-41.53c6.68-14.33,23.92-11.39,36.67-14.64
									c45.01-7.73,92.36-27.69,113.98-70.47c5.35-8.51,9.87-29.92,23.02-20.96c43.4,91.7,149.59,129.44,245.61,131.37
									c-0.55,0.15,2.28-0.03,0.04-0.38c43.24,18.48,88.87-10.9,110.57-48.43c1.09-1.71,0.06-4.31-1.94-4.76
									c-30.04-9.02-54.23-31.58-72.19-56.59c-56.89-86.13-115.08-254-244.57-163.98c1.09,0,2.18,0,3.27,0
									c-49.97-29.32-118.54-24.1-158.24,20.06c-2.92,2.99,1.66,7.58,4.59,4.58c38.11-41.88,102.59-46.99,150.38-19.04
									c29.31-13.6,61.71-32.72,96.23-20.67c107.08,43.11,105.72,205.4,218.8,241.89c-0.65-1.59-1.29-3.18-1.94-4.76
									c-21.08,36.52-64.2,62.43-105.01,45.6c-88.73-2.52-190.49-34-233.84-117.8c-25.39-50.28-43.19,31.67-67.28,44.05
									c-73.9,60.14-121.14-1.31-134.74,92.48c1.33-0.76,2.66-1.51,3.99-2.27c-29.73-10.25-53.34-37.67-64.67-64.82
									c-0.76,1.33-1.51,2.66-2.27,3.99c53.77-6.59,75.21-35.51,82.81-86.91c9.03-31.58,21.19-62.67,39.79-89.91
									C703.8,339.79,698.18,336.54,695.84,339.97L695.84,339.97z"></path>
							</g>
						</g>
						<g>
							<g>
								<g>
									<path d="M698.64,346.96c6.89,0,6.9-10.7,0-10.7C691.75,336.25,691.74,346.96,698.64,346.96L698.64,346.96z"></path>
								</g>
							</g>
						</g>
					</g>
				</g>
			</g>
			<g>
				<path d="M734.07,642.14c-33.99,0-64.59-24.94-71.41-60.55l0,0c-18.15-94.6,122.4-122.7,141.26-27.07
					C813.45,597.65,778.6,643.18,734.07,642.14z M670.3,580.13c16.91,85.63,142.26,60.44,125.96-24.15
					C779.36,470.36,654,495.54,670.3,580.13L670.3,580.13z"></path>
			</g>
			<g>
				<path d="M911.88,653.67c-33.99,0-64.59-24.94-71.41-60.55l0,0c-17.72-95.33,122.49-122.21,141.26-27.07
					C991.26,609.19,956.41,654.71,911.88,653.67z M848.12,591.66c16.91,85.63,142.26,60.44,125.96-24.15
					C957.28,482.37,832.23,506.34,848.12,591.66L848.12,591.66z"></path>
			</g>
			<g>
				<g class="st17">
					<g>
						<g>
							<path d="M1034.02,391.53c-8.49-13.68-38.64-54.34-94.13-48.31c0,0,46.24,9.33,67.25,39.22
								c5.68,8.24,12.35,27.84,24.23,26.64C1038.33,406.7,1037.1,396.63,1034.02,391.53z" class="st0"></path>
						</g>
					</g>
				</g>
			</g>
			<g>
				<g>
					<path d="M1035.64,578.08c62.6-30.05,88.34,90.33-13.46,65.2" class="st3"></path>
				</g>
				<g>
					<path d="M1037.28,580.88c71.6-22.5,67.72,85.53-14.23,59.27c-4.07-0.89-5.8,5.36-1.72,6.26c95.94,28.3,94.4-98.98,12.68-71.14
						C1030.18,576.92,1033.48,582.51,1037.28,580.88z"></path>
				</g>
			</g>
		</g>
		<g>
			<g>
				<g>
					<path d="M857.34,784.28l62.93-34.68c9.13-5.03,20.45,1.32,21.54,12.09l4.4,43.53
						c1.03,10.21-7.84,18.29-17.52,15.96l-72.39-17.44L857.34,784.28z" class="st20"></path>
				</g>
				<g>
					<path d="M858.98,787.08c13.01-7.17,26.02-14.34,39.03-21.51c7.06-3.89,14.11-7.78,21.17-11.66c1.6-0.88,3.21-1.92,4.98-2.42
						c6.18-1.76,12.47,2.53,14.07,8.54c0.59,2.22,0.64,4.6,0.87,6.87c0.47,4.67,0.94,9.34,1.41,14.01c0.8,7.91,1.66,15.82,2.4,23.73
						c0.47,5.08-1.26,10.14-6.05,12.56c-2.98,1.51-5.97,1.18-9.04,0.44c-6.88-1.66-13.76-3.32-20.65-4.97
						c-16.67-4.02-33.33-8.03-50-12.05c0.79,1.04,1.59,2.08,2.38,3.13c0.34-6.49,0.69-12.97,1.03-19.46c0.22-4.17-6.27-4.16-6.49,0
						c-0.34,6.49-0.69,12.97-1.03,19.46c-0.07,1.37,1.06,2.81,2.38,3.13c15.47,3.73,30.95,7.46,46.42,11.18
						c7.88,1.9,15.77,3.8,23.65,5.7c2.75,0.66,5.45,1.27,8.31,0.96c7.13-0.77,13.11-6.03,15.02-12.91
						c0.97-3.49,0.57-6.85,0.21-10.36c-0.46-4.51-0.91-9.02-1.37-13.53c-0.87-8.57-1.66-17.15-2.6-25.71
						c-1.41-12.93-14.27-21.72-26.47-15.4c-4.82,2.49-9.52,5.24-14.26,7.86c-15.85,8.74-31.89,17.21-47.58,26.22
						c-0.36,0.21-0.72,0.4-1.08,0.6C852.05,783.5,855.32,789.1,858.98,787.08z"></path>
				</g>
			</g>
			<g>
				<g>
					<path d="M823.67,780.11l-67.81-26.21c-9.84-3.8-20.03,3.95-19.39,14.74l2.58,43.65
						c0.61,10.24,10.67,17.09,19.88,13.54l68.86-26.59L823.67,780.11z" class="st20"></path>
				</g>
				<g>
					<path d="M824.53,776.98c-14.86-5.74-29.72-11.48-44.57-17.23c-7.21-2.79-14.42-5.57-21.63-8.36c-3.37-1.3-6.75-2.06-10.4-1.46
						c-6.9,1.12-12.68,6.6-14.23,13.43c-0.72,3.16-0.41,6.27-0.23,9.46c0.27,4.6,0.54,9.21,0.82,13.81
						c0.5,8.43,0.88,16.87,1.5,25.29c0.88,12.02,12.15,21.32,24.15,16.98c5.77-2.09,11.46-4.42,17.18-6.63
						c16.8-6.49,33.63-12.92,50.41-19.47c0.38-0.15,0.76-0.29,1.13-0.44c1.71-0.66,2.67-2.13,2.27-3.99
						c-1.37-6.38-2.75-12.75-4.12-19.13c-0.88-4.08-7.13-2.35-6.25,1.72c1.37,6.38,2.75,12.75,4.12,19.13
						c0.76-1.33,1.51-2.66,2.27-3.99c-13.78,5.32-27.56,10.64-41.33,15.96c-7.85,3.03-15.69,6.06-23.54,9.09
						c-1.32,0.51-2.64,1.06-3.98,1.54c-6.16,2.19-12.76-0.78-15.05-6.99c-0.9-2.45-0.84-5.21-0.99-7.79
						c-0.27-4.54-0.54-9.08-0.81-13.61c-0.49-8.23-1.02-16.46-1.46-24.7c-0.51-9.59,7.08-15.67,16.2-12.2
						c6.21,2.36,12.4,4.79,18.59,7.19c16.08,6.21,32.16,12.43,48.24,18.64C826.7,784.74,828.39,778.48,824.53,776.98z"></path>
				</g>
			</g>
			<g>
				<g>
					
						<ellipse ry="19.29" rx="16.57" cy="790.11" cx="839.73" class="st20" transform="matrix(0.103 -0.9947 0.9947 0.103 -32.6377 1544.0291)"></ellipse>
				</g>
				<g>
					<path d="M817.23,789.34c-0.01,19.49,26.73,26.81,39.49,14.18c6.16-6.09,7.27-15.79,2.4-23.03
						c-5.01-7.44-14.27-11.12-23.06-10.01C826.21,771.72,817.59,779,817.23,789.34c-0.14,4.17,6.34,4.17,6.49,0
						c0.21-6.12,5.14-10.55,10.8-12.01c6.26-1.62,13.37,0.18,17.81,4.96c3.99,4.3,4.61,10.79,0.89,15.47
						c-3.89,4.9-10.92,6.6-16.86,5.29c-6.59-1.45-12.65-6.55-12.64-13.71C823.72,785.17,817.24,785.16,817.23,789.34z"></path>
				</g>
			</g>
		</g>
		<g>
			<defs>
				
					<rect height="212.36" width="83.49" transform="matrix(4.567815e-03 -1 1 4.567815e-03 -36.8769 1738.5016)" y="781.59" x="813.05" id="SVGID_21_"></rect>
			</defs>
			<clipPath id="SVGID_6_">
				<use style="overflow:visible;" xlink:href="#SVGID_21_"></use>
			</clipPath>
		</g>
		<g>
			<g>
				<path d="M567.79,560.07c7.27-1.17,13.18-3.79,16.6-8.49c20.49-11.54,20.35-36.97,16.68-44.01
					c-2.74-5.25-9.2-2.77-14.11,0.21c-5.01-9.73-21-43.24-32.69-47.57c-9.52-3.53-20.19-3.41-30.06-1.75
					c-20.6,3.46-34.99,44.15-29.71,66.85c0.24,1.02,0.02,2.09,0.1,3.15c3.56,18.4,3.65,9.76,7.82,19.92
					c-15.01,216.55,121.64,267.25,121.64,267.25l20.41-127.32C586.26,657.98,567.79,560.07,567.79,560.07z" class="st3"></path>
			</g>
			<g>
				<g>
					<path d="M568.93,564.2c10.17-1.82,18.12-7.75,25.49-14.75c6.29-5.97,10.42-14.18,11.97-22.68c1.12-6.13,1.47-13.06-0.63-19.04
						c-3.52-10.01-13.58-7.95-20.96-3.66c1.95,0.51,3.9,1.02,5.86,1.54c-4.35-8.49-8.6-17.03-13.49-25.23
						c-4.82-8.08-10.58-18.25-19.05-23.06c-10.37-5.88-28.4-6.11-39.33-1.71c-9.55,3.85-16.18,13.04-20.6,21.97
						c-5.13,10.37-8.26,21.86-8.93,33.41c-0.32,5.44,0.63,10.5,1.09,15.86c0.44,5.01,1.17,10.78,3.48,15.39
						c1.14,2.27,2.46,3.32,3.48,5.19c1.29,2.34,0.6,4.54,0.45,7.22c-0.23,4.09-0.41,8.19-0.54,12.29
						c-0.44,14.15-0.23,28.33,0.76,42.45c3.04,43.52,13.48,87,35.05,125.2c14.03,24.85,32.7,47.14,55.33,64.58
						c6.97,5.37,14.29,10.31,22,14.56c3.71,2.04,7.93,4.69,12.06,5.81c0.18,0.05,0.35,0.14,0.52,0.2c2,0.75,4.92-0.85,5.27-2.99
						c5.95-37.14,11.9-74.28,17.86-111.42c0.85-5.3,1.7-10.6,2.55-15.91c0.29-1.83-0.18-3.89-1.97-4.83
						c-22.64-12.01-38.41-33.32-50.04-55.62c-9.53-18.26-16.61-37.82-21.8-57.73c-1.06-4.08-2.09-8.18-2.87-12.32
						c-1.02-5.41-9.28-3.12-8.26,2.28c2.3,12.19,5.98,24.23,10.06,35.92c8.25,23.65,19.23,46.74,35.01,66.33
						c9.28,11.52,20.47,21.59,33.59,28.54c-0.66-1.61-1.31-3.22-1.97-4.83c-5.95,37.14-11.9,74.28-17.86,111.42
						c-0.85,5.3-1.7,10.6-2.55,15.91c1.76-1,3.51-1.99,5.27-2.99c-0.07-0.02-0.44-0.13-0.45-0.17c-0.01-0.07-0.49-0.16-0.55-0.22
						c-0.39-0.42,1.14,0.5-0.02-0.01c-1.82-0.81-3.63-1.66-5.41-2.56c-6.29-3.19-12.33-6.88-18.13-10.89
						c-20.03-13.86-37.2-31.91-50.8-52.07c-21.09-31.27-33.62-67.43-39.69-104.5c-4.24-25.89-5.29-52.28-4.24-78.47
						c0.24-5.95,1.98-12.87-0.67-18.36c-0.5-1.03-1.04-2.01-1.69-2.95c-0.31-0.44-1.96-2.59-1.7-2.12
						c-1.97-3.55-2.61-8.36-2.97-12.31c-0.5-5.36-1.41-10.42-1.09-15.86c0.73-12.48,4.75-25.39,11.61-35.87
						c2.7-4.12,6.09-8.14,10.44-10.59c6.13-3.44,14.63-3.31,21.42-2.77c6.6,0.52,12.34,1.85,16.94,6.67
						c3.98,4.17,7.16,9.08,10.17,13.97c5.47,8.89,10.12,18.24,14.88,27.52c1.06,2.06,3.94,2.65,5.86,1.54
						c2.26-1.31,6.36-4.19,8.38-1.45c0.92,1.24,0.96,3.83,1.08,5.32c0.41,5.01-0.31,10.07-1.89,14.83
						c-1.98,5.99-5.68,11.45-10.72,15.29c-1.47,1.12-3.23,1.88-4.62,3.1c-0.99,0.87-1.69,2.08-2.75,2.93
						c-3.38,2.71-7.79,3.71-11.96,4.46C561.24,556.91,563.53,565.16,568.93,564.2z"></path>
				</g>
			</g>
		</g>
	</g>
</g>
</svg>
